<svg width="624.7" height="150.3" xmlns="http://www.w3.org/2000/svg">
 <style type="text/css">.st0{fill:#A2A3B7;}
	.st1{fill:#00ADBB;}</style>

 <g>
  <title>background</title>
  <rect fill="none" id="canvas_background" height="402" width="582" y="-1" x="-1"/>
 </g>
 <g>
  <title>Layer 1</title>
  <g id="svg_40">
   <g id="svg_41">
    <g id="svg_42">
     <path id="svg_43" d="m133.1,62.5c19.9,-16.8 -24.9,-73.2 -82,-54.5c30.8,-9.8 72.4,25.8 82,54.5z" class="st1"/>
     <path id="svg_44" d="m99.6,47.8c-11.5,-9.6 -27.4,-22.7 -44.3,-27.4c-30.3,-8.2 -46.2,19.1 -50.8,40.7c5.4,-20.6 31,-55.6 79.3,12.8c8.4,11.8 11.1,15.6 15.9,13.5c10,-4.6 26,-17.5 33.4,-24.8c-6.3,5 -11.2,3.8 -33.5,-14.8z" class="st1"/>
    </g>
    <g id="svg_45">
     <path id="svg_46" d="m15,87.8c-20,16.8 24.8,73.2 81.9,54.5c-30.7,9.7 -72.3,-25.8 -81.9,-54.5z" class="st1"/>
     <path id="svg_47" d="m48.4,102.4c11.5,9.6 27.4,22.7 44.3,27.4c30.3,8.3 46.2,-19.1 50.7,-40.6c-5.4,20.6 -31,55.6 -79.3,-12.8c-8.3,-11.8 -10.9,-15.6 -15.8,-13.4c-10,4.6 -26,17.5 -33.4,24.8c6.3,-5.2 11.2,-3.9 33.5,14.6z" class="st1"/>
    </g>
   </g>
   <g id="svg_48">
    <path id="svg_49" d="m213.8,49.9c0,-0.3 -0.1,-0.4 -0.4,-0.5l-5.2,-1.3c-0.3,-0.1 -0.5,-0.3 -0.5,-0.6l0,-1.9c0,-0.4 0.2,-0.5 0.5,-0.5l16.3,0c0.3,0 0.5,0.2 0.5,0.5l0,2.1c0,0.3 -0.1,0.5 -0.4,0.5l-4.1,0.8c-0.4,0.1 -0.5,0.4 -0.5,0.7l0,26.5c0,8 -1.2,15.6 -4.7,21c-3.5,5.5 -9.6,9 -19,9c-8.3,0 -13.8,-3.4 -16.8,-6.7c-4.6,-5 -6.3,-11.6 -6.3,-21.8l0,-26.6c0,-0.4 -0.1,-0.5 -0.4,-0.6l-6.1,-1.4c-0.3,-0.1 -0.5,-0.3 -0.5,-0.6l0,-2.7c0,-0.5 0.2,-0.6 0.5,-0.6l20.3,0c0.3,0 0.5,0.2 0.5,0.5l0,2.5c0,0.4 -0.1,0.5 -0.4,0.6l-5.1,1c-0.6,0.2 -1,0.5 -1,1.1l0,25.7c0,6.5 0.4,12.4 3.5,17.2c2.4,3.9 7.3,6.6 13.8,6.6c6.2,0 10.2,-2.6 12.4,-7c2.2,-4.3 2.9,-10.5 2.9,-17.4l0,-26.1l0.2,0z" class="st0"/>
    <path id="svg_50" d="m249.1,48.2c-6.8,0 -11.2,2.9 -11.2,9.7c0,3.9 2.1,6.3 5,8c1.2,0.6 2.5,1.4 4.2,2.2c3.2,1.6 6.8,3.4 10.2,5.2c3.3,1.8 7.8,3.8 9.9,8.6c1,2.4 1.5,4.7 1.5,6.9c0,5.4 -2.3,9.8 -5.8,12.9c-3.6,3.1 -8.6,4.8 -14,4.8c-5.7,0 -12.8,-1.7 -19.6,-4.5c-0.5,-0.2 -0.6,-0.5 -0.5,-1l3.8,-10.7c0.2,-0.5 0.5,-0.6 0.8,-0.6l1.8,0.3c0.6,0.1 1,0.4 1.1,0.8c0.3,1.7 0.9,4.5 2.7,6.9c1.8,2.4 4.8,4.4 9.8,4.4c8,0 12.9,-4.6 12.9,-10.7c0,-3.7 -2.1,-6.5 -5,-8.2c-2.4,-1.4 -5.7,-3.1 -9.2,-4.9c-3.5,-1.7 -7,-3.5 -9.6,-5c-2.6,-1.5 -4.4,-3.7 -5.5,-5.9c-1.2,-2.2 -1.6,-4.7 -1.6,-6.8c0,-5 2.3,-9.1 5.7,-12c3.4,-2.9 8,-4.5 12.7,-4.5c5.4,0 10.7,1.3 15.7,3.4c0.5,0.2 0.5,0.5 0.5,0.9l-3.2,9.1c-0.1,0.5 -0.4,0.6 -0.6,0.6l-1.7,-0.3c-0.4,0 -0.5,-0.2 -0.6,-0.6c-0.4,-1.9 -1.1,-4.2 -2.6,-5.9c-1.5,-1.8 -4,-3.1 -7.6,-3.1z" class="st0"/>
    <path id="svg_51" d="m321.1,76.5l-30.5,0l0,22.8c0,0.4 0.1,0.5 0.4,0.6l6.7,1.4c0.3,0.1 0.5,0.3 0.5,0.6l0,2.4c0,0.5 -0.2,0.6 -0.5,0.6l-20.8,0c-0.3,0 -0.5,-0.2 -0.5,-0.5l0,-2.3c0,-0.3 0.2,-0.5 0.5,-0.6l4.5,-0.9c1.2,-0.3 1.5,-1.2 1.5,-2.2l0,-47.5c0,-0.3 -0.2,-0.5 -0.5,-0.6l-6.4,-1.4c-0.3,-0.1 -0.5,-0.3 -0.5,-0.6l0,-2.4c0,-0.5 0.2,-0.6 0.5,-0.6l20.8,0c0.3,0 0.5,0.2 0.5,0.5l0,2.2c0,0.4 -0.1,0.5 -0.4,0.6l-4.8,0.9c-1.2,0.3 -1.5,1.2 -1.5,2.2l0,19.3l30.5,0l0,-19.8c0,-0.6 -0.2,-0.9 -0.6,-1l-6.5,-1.4c-0.3,-0.1 -0.5,-0.3 -0.5,-0.6l0,-2.4c0,-0.5 0.2,-0.6 0.5,-0.6l21,0c0.3,0 0.5,0.2 0.5,0.5l0,2.3c0,0.4 -0.1,0.5 -0.4,0.6l-4.6,0.9c-1.2,0.3 -1.5,1.2 -1.5,2.2l0,47.7c0,0.4 0.1,0.5 0.4,0.6l6.5,1.4c0.3,0.1 0.5,0.3 0.5,0.6l0,2.4c0,0.5 -0.2,0.6 -0.5,0.6l-20.9,0c-0.3,0 -0.5,-0.2 -0.5,-0.5l0,-2.3c0,-0.4 0.1,-0.5 0.4,-0.6l4.9,-0.9c1.2,-0.3 1.5,-1.2 1.5,-2.2l0,-22l-0.2,0z" class="st0"/>
    <path id="svg_52" d="m380.5,84.5l-20.8,0l-5,15.2c-0.1,0.3 -0.1,0.5 0.2,0.6l4.1,1.4c0.3,0.1 0.5,0.3 0.5,0.5l0,2.3c0,0.5 -0.2,0.6 -0.5,0.6l-16.9,0c-0.3,0 -0.5,-0.2 -0.5,-0.5l0,-2.3c0,-0.3 0.1,-0.5 0.4,-0.5c0.8,-0.3 1.5,-0.5 2.3,-0.7c1.4,-0.4 3,-0.9 3.6,-1.6c0.3,-0.3 0.5,-0.6 0.6,-1l18.5,-50.2c0.3,-0.8 0.8,-1.4 1.2,-1.6c1.2,-1 2.7,-1.8 3.7,-2.3c0.8,-0.5 1.4,-0.6 1.8,-0.6c0.3,0 0.4,0.1 0.5,0.4l19.2,53.3c0.5,1.4 1.3,2.2 2.4,2.4l4.6,1.3c0.3,0.1 0.4,0.3 0.4,0.6l0,2.7c0,0.4 -0.2,0.5 -0.5,0.5l-19.6,0c-0.3,0 -0.5,-0.2 -0.5,-0.5l0,-2.7c0,-0.3 0.1,-0.5 0.4,-0.6l4.8,-1.3c0.4,-0.1 0.5,-0.4 0.3,-0.8l-5.2,-14.6zm-19.1,-5.3l17.2,0l-8.1,-23.3c-0.1,-0.4 -0.4,-0.5 -0.6,-0.5c-0.5,0 -0.6,0.2 -0.7,0.5l-7.8,23.3z" class="st0"/>
    <path id="svg_53" d="m426,48.2c-6.8,0 -11.2,2.9 -11.2,9.7c0,3.9 2.1,6.3 5,8c1.2,0.6 2.5,1.4 4.2,2.2c3.2,1.6 6.8,3.4 10.2,5.2c3.3,1.8 7.8,3.8 9.9,8.6c1,2.4 1.5,4.7 1.5,6.9c0,5.4 -2.3,9.8 -5.8,12.9c-3.6,3.1 -8.6,4.8 -14,4.8c-5.7,0 -12.8,-1.7 -19.6,-4.5c-0.5,-0.2 -0.6,-0.5 -0.5,-1l3.8,-10.7c0.2,-0.5 0.5,-0.6 0.8,-0.6l1.8,0.3c0.6,0.1 1,0.4 1.1,0.8c0.3,1.7 0.9,4.5 2.7,6.9c1.8,2.4 4.8,4.4 9.8,4.4c8,0 12.9,-4.6 12.9,-10.7c0,-3.7 -2.1,-6.5 -5,-8.2c-2.4,-1.4 -5.7,-3.1 -9.2,-4.9c-3.5,-1.7 -7,-3.5 -9.6,-5c-2.6,-1.5 -4.4,-3.7 -5.5,-5.9c-1.2,-2.2 -1.6,-4.7 -1.6,-6.8c0,-5 2.3,-9.1 5.7,-12c3.4,-2.9 8,-4.5 12.7,-4.5c5.4,0 10.7,1.3 15.7,3.4c0.4,0.2 0.5,0.5 0.4,0.9l-3.2,9.1c-0.1,0.5 -0.4,0.6 -0.6,0.6l-1.7,-0.3c-0.4,0 -0.5,-0.2 -0.6,-0.6c-0.4,-1.9 -1.1,-4.2 -2.6,-5.9c-1.4,-1.8 -3.9,-3.1 -7.5,-3.1z" class="st0"/>
    <g id="svg_54">
     <path id="svg_55" d="m421.7,114.1c0,-1.3 0.4,-2.4 1.2,-3.1c0.8,-0.8 1.8,-1.1 3,-1.1c1.2,0 2.2,0.4 3.1,1.1c0.8,0.7 1.3,1.7 1.3,3.1c0,1.3 -0.4,2.4 -1.2,3.2c-0.8,0.8 -1.8,1.3 -3.2,1.3c-1.2,0 -2.2,-0.4 -3,-1.2c-0.8,-0.9 -1.2,-2 -1.2,-3.3z" class="st0"/>
    </g>
   </g>
   <path id="svg_56" d="m562.5,70.2c0.5,2 -1.6,3 -2.5,3.1c0.6,1.2 2.8,0.6 4,-0.3l0,0c0.5,-0.4 1,0.1 1.5,0.4c1.5,0.9 5.9,5.2 8.5,2.9c-4.2,-1.9 -5.7,-3.1 -8.6,-4.8c2.3,-0.2 10.5,6.7 12.4,2c-6,-1.3 -8.8,-2.6 -12.2,-3.6c2.7,-0.8 15.7,5.2 15.7,0.1c-4.9,-0.2 -12,-1.3 -15.3,-1.7c3.4,-1.4 17,2.8 17.3,-2.9c-7.9,1.5 -21.8,-2.8 -20.8,4.8m-8.6,0c1.1,-7.7 -12.9,-3.4 -20.8,-4.9c0.3,5.7 13.9,1.5 17.3,2.9c-3.2,0.4 -10.4,1.4 -15.3,1.7c0,5.2 13,-0.9 15.7,-0.1c-3.4,1.1 -6.2,2.3 -12.2,3.6c1.9,4.7 10.1,-2.2 12.4,-2c-2.9,1.7 -4.4,2.9 -8.6,4.8c2.6,2.4 7,-2 8.5,-2.9c0.4,-0.2 0.9,-0.7 1.5,-0.4l0,0c1.2,0.8 3.4,1.4 4,0.3c-0.9,0.1 -3,-1 -2.5,-3m3.7,-16.5l0.6,1.8l0.6,-1.8l1.9,0l-1.5,-1.1l0.6,-1.8l-1.5,1.1l-1.5,-1.1l0.6,1.8l-1.5,1.1l1.7,0zm-4.7,6.2c0,2.9 2.4,5.3 5.3,5.3c2.9,0 5.3,-2.4 5.3,-5.3c0,-1.9 -1,-3.6 -2.6,-4.5c0.9,0.8 1.5,1.9 1.5,3.2c0,2.3 -1.9,4.2 -4.2,4.2c-2.3,0 -4.2,-1.9 -4.2,-4.2c0,-1.3 0.6,-2.4 1.5,-3.2c-1.5,0.9 -2.6,2.6 -2.6,4.5m5.6,30.5c-1.6,-0.3 -2.5,-0.6 -2.5,-0.9c0,-0.3 0.2,-0.3 0.7,-0.6c0.5,-0.2 0.8,-0.4 0.9,-0.4l-2.3,-0.9c0,0 -0.1,0 -0.1,0.1c0,0 0,0 0,0c0,0 0,0 0,0c-0.7,0.4 -1,1.1 -1,1.9c0,0.8 0.6,1.4 1.7,1.7c0.4,0.1 0.8,0.2 1.3,0.3l1.6,0.2c0.5,0.1 0.6,0.3 0.6,0.6c0,0.1 -0.2,0.3 -0.4,0.4c0.1,0 0.2,0.1 0.4,0.1c0.1,0 0.2,0.1 0.3,0.1c0.1,0 0.2,0.1 0.3,0.2c0.1,0.1 0.2,0.1 0.2,0.1c0,0 0.1,0.1 0.2,0.2c0.7,-0.5 1,-1.1 0.8,-1.8c-0.2,-0.6 -1.1,-1 -2.7,-1.3m0.2,-1.5l-1,-0.3l0,1.3l0.9,0.2l0.1,-1.2zm-0.5,7.6c0.4,-0.5 0.6,-1 -0.2,-1.4c0,0.4 -0.4,0.8 0.2,1.4m-0.4,-1.6l-0.2,-0.1c-0.7,-0.4 -1.1,-0.7 -1.1,-0.8c-0.5,0.5 -0.6,1 -0.3,1.7c0.5,1.2 2,2.5 4.7,3.8c-3,-2.3 -4,-3.8 -3.1,-4.6m0,3.2c-0.1,0.7 0.1,3.3 0.3,3.8c0.3,-0.8 0.2,-2.5 0.2,-3.5l-0.5,-0.3zm3.6,-10.3c-0.7,-0.5 -1.9,-0.9 -3.6,-1.5c-1.7,-0.5 -2.4,-0.8 -2.4,-1.1c0,-0.4 0.4,-0.5 1.5,-0.8l0.5,-0.1c-1,-0.2 -2,-0.5 -2.9,-0.8c-1,0.6 -1.4,1.2 -1.2,1.9c0.2,0.8 0.9,1.4 2,2c1.3,0.5 2.6,1 3.7,1.3c1.1,0.3 1.5,0.6 1.6,0.9c0,0.2 -0.5,0.5 -1.4,0.7c1,0.1 1.7,0.5 2.1,1c0.8,-0.4 1.2,-0.9 1.2,-1.6c-0.1,-0.9 -0.5,-1.5 -1.1,-1.9m3.8,-11.2c-0.8,-1 -1.7,-1.4 -2.6,-1.5c-1,0.1 -1.8,0.4 -2.3,1c-0.5,0.6 -0.8,1.1 -0.8,1.5c0,0.4 0.8,0.4 2.6,-0.1c0.8,-0.2 1.3,-0.1 1.6,0.4c0.3,0.5 0.2,1.2 -0.5,1.9c-0.8,0.8 -2,1.4 -3.7,1.8l-0.4,0.2c1,0.2 2,0.6 3,1c0,0 0,0 0.1,0c1.5,-0.7 2.6,-1.5 3.4,-2.6c0.6,-1.4 0.5,-2.6 -0.4,-3.6m-5,6l-3.3,-0.9c-1.6,-0.5 -2.9,-1.1 -3.7,-1.8c-0.7,-0.7 -0.8,-1.4 -0.5,-1.9c0.3,-0.5 0.9,-0.6 1.6,-0.4c1.8,0.5 2.6,0.5 2.6,0.1c0,-0.4 -0.3,-0.9 -0.8,-1.5c-0.5,-0.6 -1.3,-0.9 -2.3,-1c-1,0 -1.9,0.5 -2.6,1.5c-0.9,1.1 -1,2.3 -0.4,3.6c0.9,1.3 2.3,2.3 4.3,3l4.5,1.2c1,0.2 1.5,0.5 1.5,0.8c0,0.2 -0.7,0.6 -2.2,1.1c0.3,0.1 0.6,0.2 0.9,0.3c0.3,0.1 0.6,0.2 0.8,0.4c0.3,0.1 0.5,0.2 0.6,0.3c1.1,-0.5 1.8,-1.2 1.9,-1.9c0.4,-1.2 -0.6,-2.1 -2.9,-2.9m-1.5,1.9l-1.1,-0.3l0,1.7l1,0.3l0.1,-1.7zm-1.3,-12.9l0.2,9.7l1.2,0.4l0.2,-10.1c0.8,-0.3 1.4,-1.1 1.4,-2c0,-1.1 -0.8,-2 -1.8,-2.1c-0.1,0 -0.2,0 -0.3,0c0,0 0,0 0,0c0,0 0,0 0,0c0,0 -0.1,0 -0.1,0c-0.1,0 -0.2,0 -0.3,0c-0.1,0 -0.1,0 -0.2,0.1c0,0 -0.1,0 -0.1,0c-0.1,0 -0.2,0.1 -0.3,0.1c0,0 0,0 0,0c-0.7,0.4 -1.1,1.1 -1.1,1.9c-0.2,0.9 0.4,1.7 1.2,2m1.2,20.7l-0.8,-0.1c0,0.4 0.1,0.6 0.4,0.7c0.4,-0.1 0.4,-0.3 0.4,-0.6m-3,-0.7c-0.1,0.1 -0.1,0.1 -0.1,0.2c-0.1,0.7 0.3,1.3 1,1.8c0.2,0.2 0.9,0.6 2,1.2c0.7,0.4 0.7,1.1 0,2c0.1,0.2 0.3,0.3 0.5,0.5c0.7,-0.5 1.1,-1.1 1.4,-1.7c0.5,-1.1 -0.1,-1.9 -1.8,-2.5c-0.7,-0.2 -1.1,-0.5 -1.2,-0.7c0,-0.1 0,-0.3 0.1,-0.4c-0.8,0 -1.5,-0.2 -1.9,-0.4m2.6,15.9c-0.8,0 -1.4,0.6 -1.4,1.4c0,0.8 0.6,1.4 1.4,1.4c0.8,0 1.4,-0.6 1.4,-1.4c0,-0.8 -0.6,-1.4 -1.4,-1.4m20.1,-2.8l-2.6,-4l-0.9,0.6l2.6,4l0.9,-0.6zm0.6,-2.9l1.3,-1.2l-0.6,-0.6l-0.6,0.5l-0.7,-0.7c0,-0.1 0.2,-0.2 0.4,-0.4c0.7,-0.6 1.5,-0.6 2.2,0.2c0.7,0.8 0.5,1.6 -0.2,2.2c-0.4,0.3 -0.7,0.5 -1,0.6l0.4,0.8c0.2,-0.1 0.7,-0.3 1.1,-0.7c1.2,-1 1.4,-2.5 0.4,-3.7c-0.5,-0.5 -1,-0.8 -1.6,-0.9c-0.6,0 -1.2,0.2 -1.9,0.8c-0.5,0.4 -0.8,0.9 -1,1.2l1.8,1.9zm4.2,0.6c-0.3,-0.4 -0.8,-0.5 -1.3,0c-0.5,0.4 -0.5,0.9 -0.2,1.3l0.4,-0.4c-0.1,-0.2 -0.1,-0.3 0.1,-0.5c0.2,-0.2 0.4,-0.1 0.5,0l0.5,-0.4zm2.4,-4.3l-3.6,-3.1l-0.7,0.8l3.6,3.1l0.7,-0.8zm-1,-6.6l-1.7,2.5l0.7,0.5l1.1,-1.6l3.2,2.2l0.6,-0.9l-3.9,-2.7zm2.2,-4.2l1.3,0.6c0.7,0.3 1.3,0.6 1.9,0.8l0,0c-0.6,0 -1.3,0 -1.9,0l-2.1,0.1l-0.5,1l4.3,2l0.4,-0.9l-1.3,-0.6c-0.6,-0.3 -1.2,-0.6 -1.8,-0.8l0,0c0.6,0 1.2,0 1.8,0l2,-0.2l0.5,-1.1l-4.3,-2l-0.3,1.1zm2.4,-3.3l-1.3,0l-0.3,1.1l5,-0.2l0.4,-1.4l-4.2,-2.6l-0.3,1.1l1.1,0.6l-0.4,1.4zm1.1,-0.9l0.9,0.5c0.2,0.1 0.6,0.3 0.8,0.4l0,0c-0.3,0 -0.7,0 -0.9,0l-1.1,0l0.3,-0.9zm-1,-7l-0.1,1.1l1.5,0.1l0.5,0.5l-2.1,1l-0.1,1.3l2.9,-1.4l1.9,1.7l0.1,-1.3l-1.5,-1.2c-0.2,-0.1 -0.3,-0.2 -0.5,-0.4l0,0l2.1,0.2l0.1,-1.1l-4.8,-0.5zm1.1,-3l-1.2,0.5l0.1,1.2l4.6,-1.9l-0.1,-1.4l-4.9,-1.1l0.1,1.1l1.2,0.2l0.2,1.4zm0.7,-1.3l1,0.2c0.3,0.1 0.6,0.1 0.9,0.1l0,0c-0.3,0.1 -0.6,0.2 -0.9,0.3l-1,0.4l0,-1zm-3.2,-5.9c0,0.2 0.1,0.6 0.2,1.1c0.2,0.9 0.5,1.4 0.9,1.7c0.3,0.2 0.7,0.3 1.1,0.2c0.6,-0.2 0.9,-0.6 0.9,-1.2l0,0c0.3,0.5 0.8,0.6 1.2,0.5c0.4,-0.1 0.7,-0.4 0.8,-0.8c0.1,-0.4 0.1,-0.8 -0.1,-1.4c-0.1,-0.5 -0.3,-1.1 -0.4,-1.3l-4.6,1.2zm2.3,0.5l0.1,0.4c0.1,0.5 0.1,1 -0.4,1.1c-0.5,0.1 -0.8,-0.2 -0.9,-0.7c0,-0.2 -0.1,-0.3 -0.1,-0.4l1.3,-0.4zm1.8,-0.5c0,0.1 0.1,0.2 0.1,0.4c0.1,0.5 0,0.8 -0.3,0.9c-0.3,0.1 -0.6,-0.1 -0.8,-0.7l-0.1,-0.3l1.1,-0.3zm-7,-6.6l0.5,0.9l1.4,-0.7l0.6,0.1l-1.3,2l0.6,1.1l1.7,-2.7l2.5,0.5l-0.6,-1.2l-1.9,-0.2c-0.2,0 -0.4,0 -0.6,0l0,0l1.9,-1l-0.5,-0.9l-4.3,2.1zm2.3,-5l-3.9,2.7l0.6,0.9l3.9,-2.7l-0.6,-0.9zm-6.7,-0.7l2,2.2l0.7,-0.6l-1.3,-1.4l2.9,-2.6l-0.7,-0.8l-3.6,3.2zm0.6,-3.3l-1.4,-1.1l-0.5,0.7l0.6,0.5l-0.6,0.8c-0.1,0 -0.3,-0.1 -0.5,-0.3c-0.7,-0.6 -0.8,-1.4 -0.2,-2.2c0.7,-0.8 1.5,-0.8 2.2,-0.2c0.4,0.3 0.6,0.6 0.7,0.9l0.7,-0.5c-0.1,-0.2 -0.4,-0.6 -0.9,-1c-1.2,-1 -2.7,-1 -3.7,0.2c-0.4,0.5 -0.7,1.2 -0.6,1.8c0.1,0.6 0.4,1.2 1.1,1.7c0.5,0.4 1.1,0.7 1.4,0.8l1.7,-2.1zm-0.1,-4.2c-0.3,0.4 -0.3,0.9 0.2,1.3c0.5,0.4 1,0.3 1.3,-0.1l-0.4,-0.3c-0.1,0.1 -0.3,0.2 -0.6,0c-0.2,-0.2 -0.2,-0.4 -0.1,-0.5l-0.4,-0.4zm-6.5,1.3l-0.3,1.2l1,0.6l1,-4.9l-1.2,-0.7l-3.6,3.4l1,0.5l0.9,-0.9l1.2,0.8zm-0.6,-1.3l0.7,-0.7c0.2,-0.2 0.4,-0.5 0.6,-0.7l0,0c-0.1,0.3 -0.2,0.6 -0.2,0.9l-0.2,1l-0.9,-0.5zm-6.4,-0.8c0.2,0.2 0.7,0.6 1.2,0.7c1.2,0.5 2,0 2.3,-0.7c0.2,-0.6 0,-1.2 -0.7,-1.8c-0.5,-0.4 -0.7,-0.6 -0.6,-0.9c0.1,-0.2 0.4,-0.4 0.8,-0.2c0.4,0.2 0.7,0.4 0.9,0.6l0.5,-0.7c-0.2,-0.2 -0.6,-0.5 -1.1,-0.6c-1.1,-0.4 -1.9,0 -2.2,0.7c-0.2,0.6 0.1,1.2 0.7,1.8c0.5,0.4 0.6,0.6 0.5,0.9c-0.1,0.3 -0.4,0.4 -0.9,0.2c-0.4,-0.2 -0.8,-0.5 -1,-0.7l-0.4,0.7zm-3.9,-5.5l-0.8,4.7l1.1,0.2l0.8,-4.7l-1.1,-0.2zm0.2,-0.7c0,0.3 0.1,0.5 0.4,0.6c0.3,0 0.5,-0.1 0.5,-0.4c0,-0.3 -0.1,-0.5 -0.4,-0.6c-0.2,-0.1 -0.5,0.1 -0.5,0.4m-4.7,5.1l1.1,0.1l0.2,-3.9l1.3,0.1l0,-0.9l-3.7,-0.2l0,0.9l1.3,0.1l-0.2,3.8zm-3,-2.9l-1.7,0.2l-0.1,-1l1.8,-0.2l-0.1,-0.9l-2.9,0.3l0.5,4.7l3,-0.3l-0.1,-0.9l-1.9,0.2l-0.1,-1.1l1.7,-0.2l-0.1,-0.8zm-5.3,3.7l-0.5,-1.9l0.8,-3.1l-1.2,0.3l-0.2,1.2c0,0.4 -0.1,0.7 -0.1,1l0,0c-0.2,-0.3 -0.4,-0.5 -0.6,-0.8l-0.8,-1l-1.2,0.3l2.2,2.3l0.5,1.9l1.1,-0.2zm-6.8,-3.5c0.1,0.2 0.4,0.4 0.6,0.3c0.2,-0.1 0.4,-0.4 0.3,-0.6c-0.1,-0.3 -0.4,-0.4 -0.6,-0.3c-0.2,0.1 -0.4,0.3 -0.3,0.6m0.3,0.7l1.8,4.4l1,-0.4l-1.8,-4.4l-1,0.4zm-2.7,6.7l0.9,-0.5l-0.9,-1.6l0.3,-0.2c0.4,-0.2 0.6,-0.2 1,0.3c0.4,0.4 0.7,0.7 0.8,0.8l1,-0.5c-0.2,-0.1 -0.6,-0.6 -1,-1c-0.3,-0.3 -0.6,-0.5 -1,-0.5l0,0c0.3,-0.3 0.5,-0.9 0.2,-1.4c-0.2,-0.4 -0.5,-0.6 -0.9,-0.7c-0.4,-0.1 -0.9,0.1 -1.5,0.4c-0.5,0.3 -0.9,0.6 -1.2,0.8l2.3,4.1zm-1,-3.9c0.1,-0.1 0.2,-0.1 0.4,-0.3c0.4,-0.2 0.8,-0.2 1,0.2c0.2,0.4 0.1,0.8 -0.4,1l-0.4,0.2l-0.6,-1.1zm-6.5,3.6l1.7,2.1c1,1.2 1.9,1.2 2.9,0.5c1,-0.8 1.1,-1.8 0.2,-2.9l-1.7,-2.1l-0.8,0.7l1.6,2.1c0.5,0.7 0.5,1.2 0.1,1.5c-0.4,0.3 -0.9,0.2 -1.4,-0.4l-1.7,-2.1l-0.9,0.6zm-4.4,4.8l3.6,3.1l0.7,-0.8l-1.5,-1.3l1.2,-1.3l1.5,1.3l0.7,-0.8l-3.6,-3.1l-0.7,0.8l1.4,1.2l-1.2,1.3l-1.4,-1.2l-0.7,0.8zm2.2,5.3l0.5,-0.9l-4.3,-2.1l-0.7,1.2l1.1,1.2c0.4,0.4 0.9,0.8 1.3,1.2l0,0c-0.5,-0.2 -1.1,-0.3 -1.7,-0.5l-1.6,-0.4l-0.7,1.3l4,2.6l0.5,-0.9l-1.5,-1c-0.5,-0.3 -1.1,-0.7 -1.7,-1l0,0c0.6,0.2 1.3,0.4 1.8,0.5l1.9,0.4l0.4,-0.7l-1.3,-1.4c-0.4,-0.4 -0.9,-0.9 -1.4,-1.4l0,0c0.6,0.3 1.2,0.7 1.7,0.9l1.7,1zm-8.3,7.4l2.5,0.8c1.4,0.5 2.3,0 2.7,-1.2c0.4,-1.2 -0.1,-2.1 -1.5,-2.5l-2.5,-0.8l-0.3,1l2.6,0.8c0.8,0.3 1.1,0.7 0.9,1.2c-0.2,0.5 -0.7,0.7 -1.4,0.4l-2.6,-0.8l-0.4,1.1zm3.2,2.8c0.1,0.2 0.1,0.6 0,0.9c-0.1,0.9 -0.8,1.4 -1.8,1.3c-1,-0.2 -1.5,-0.9 -1.3,-1.7c0.1,-0.4 0.2,-0.7 0.3,-0.9l-0.8,-0.3c-0.1,0.2 -0.3,0.6 -0.4,1.1c-0.2,1.4 0.5,2.7 2.1,2.9c1.3,0.2 2.5,-0.5 2.7,-2.1c0.1,-0.6 0,-1 0,-1.2l-0.8,0zm-2.5,7.5l0.1,1.7l-1,0.1l-0.1,-1.8l-0.9,0.1l0.2,2.9l4.7,-0.4l-0.2,-3l-0.9,0.1l0.2,1.9l-1.1,0.1l-0.1,-1.7l-0.9,0zm3.6,5.4l-1.9,0.5l-3.1,-0.9l0.3,1.2l1.2,0.2c0.4,0.1 0.7,0.1 1,0.1l0,0c-0.3,0.2 -0.5,0.3 -0.8,0.6l-1,0.7l0.3,1.2l2.4,-2.1l1.9,-0.5l-0.3,-1zm-3.7,6.7c0.2,-0.1 0.4,-0.4 0.3,-0.6c-0.1,-0.3 -0.4,-0.4 -0.6,-0.3c-0.3,0.1 -0.4,0.4 -0.3,0.6c0.1,0.2 0.4,0.4 0.6,0.3m0.8,-0.2l4.5,-1.7l-0.4,-1l-4.5,1.7l0.4,1zm6.7,2.9l-0.5,-0.9l-1.4,0.7l-0.6,-0.1l1.3,-2l-0.6,-1.1l-1.6,2.8l-2.5,-0.4l0.6,1.2l1.9,0.2c0.2,0 0.4,0 0.6,0l0,0l-1.9,1l0.5,0.9l4.2,-2.3zm2.9,4.1l-0.7,-0.8l-1.5,1.1l-0.2,-0.3c-0.3,-0.4 -0.3,-0.6 0.1,-1.1c0.4,-0.5 0.6,-0.8 0.7,-0.9l-0.7,-0.9c-0.1,0.2 -0.5,0.7 -0.8,1.1c-0.3,0.4 -0.4,0.7 -0.3,1l0,0c-0.4,-0.2 -1,-0.3 -1.4,0c-0.3,0.3 -0.5,0.6 -0.5,1c0,0.4 0.2,0.9 0.6,1.5c0.3,0.5 0.7,0.8 1,1.1l3.7,-2.8zm-3.8,1.6c-0.1,-0.1 -0.2,-0.2 -0.3,-0.4c-0.3,-0.4 -0.3,-0.8 0,-1c0.3,-0.3 0.7,-0.2 1.1,0.3l0.3,0.3l-1.1,0.8zm2.4,4.8c0.2,-0.2 0.2,-0.5 0,-0.7c-0.2,-0.2 -0.5,-0.2 -0.7,0c-0.2,0.2 -0.2,0.5 0,0.7c0.2,0.3 0.5,0.2 0.7,0m2.2,1l1.8,-1.9c1,-1.1 1,-2.1 0.1,-2.9c-0.9,-0.8 -1.9,-0.8 -2.9,0.2l-1.8,2l0.8,0.7l1.9,-2c0.6,-0.6 1.1,-0.7 1.5,-0.3c0.4,0.4 0.3,0.9 -0.2,1.5l-1.9,2l0.7,0.7zm-1.1,0c0.2,-0.2 0.2,-0.5 0,-0.7c-0.2,-0.2 -0.5,-0.2 -0.7,0c-0.2,0.2 -0.2,0.5 0,0.7c0.2,0.2 0.5,0.2 0.7,0m7.3,-1.4l-0.9,-0.6l-2.1,3.2l-1.1,-0.7l-0.5,0.8l3.1,2l0.5,-0.8l-1.1,-0.7l2.1,-3.2zm16.6,13c21.6,0 39.2,-17.6 39.2,-39.2c0,-21.6 -17.6,-39.2 -39.2,-39.2c-21.6,0 -39.2,17.6 -39.2,39.2c0,21.7 17.6,39.2 39.2,39.2m0,-77.5c21.1,0 38.3,17.2 38.3,38.3s-17.2,38.3 -38.3,38.3s-38.3,-17.2 -38.3,-38.3s17.2,-38.3 38.3,-38.3m0,67.5c16.1,0 29.1,-13.1 29.1,-29.1c0,-16.1 -13.1,-29.1 -29.1,-29.1s-29.1,13.1 -29.1,29.1c0,16 13,29.1 29.1,29.1m0,-57.4c15.6,0 28.3,12.7 28.3,28.3c0,15.6 -12.7,28.3 -28.3,28.3c-15.6,0 -28.3,-12.7 -28.3,-28.3c0,-15.7 12.7,-28.3 28.3,-28.3m16.2,-13.9l-0.3,3.7l2.4,-2.8l3.4,1.4l-1.9,-3.2l2.4,-2.8l-3.6,0.9l-1.9,-3.1l-0.3,3.7l-3.6,0.8l3.4,1.4zm14.9,9.4l-1.7,3.3l3.3,-1.7l2.6,2.6l-0.6,-3.7l3.3,-1.7l-3.7,-0.6l-0.6,-3.6l-1.7,3.3l-3.6,-0.6l2.7,2.7zm10.1,14.4l-2.8,2.4l3.7,-0.3l1.4,3.4l0.9,-3.6l3.7,-0.3l-3.2,-1.9l0.9,-3.6l-2.8,2.4l-3.1,-1.9l1.3,3.4zm3.9,17.2l-3.5,1.1l3.5,1.1l0,3.7l2.2,-3l3.5,1.2l-2.2,-3l2.2,-3l-3.5,1.2l-2.2,-3l0,3.7zm-3,17.4l-3.7,-0.3l2.8,2.4l-1.4,3.4l3.2,-1.9l2.8,2.4l-0.9,-3.6l3.1,-1.9l-3.7,-0.3l-0.8,-3.6l-1.4,3.4zm-9.4,14.8l-3.3,-1.7l1.7,3.3l-2.6,2.6l3.7,-0.6l1.7,3.3l0.6,-3.7l3.6,-0.6l-3.3,-1.7l0.6,-3.6l-2.7,2.7zm-14.4,10.2l-2.4,-2.8l0.3,3.7l-3.4,1.4l3.6,0.9l0.3,3.7l1.9,-3.2l3.6,0.9l-2.4,-2.8l1.9,-3.1l-3.4,1.3zm-17.2,3.9l-1.1,-3.5l-1.1,3.5l-3.7,0l3,2.2l-1.2,3.5l3,-2.2l3,2.2l-1.2,-3.5l3,-2.2l-3.7,0zm-17.3,-3.1l0.3,-3.7l-2.4,2.8l-3.4,-1.4l1.9,3.2l-2.4,2.8l3.6,-0.9l1.9,3.1l0.3,-3.7l3.6,-0.8l-3.4,-1.4zm-14.9,-9.4l1.7,-3.3l-3.3,1.7l-2.6,-2.6l0.6,3.7l-3.3,1.7l3.7,0.6l0.6,3.6l1.7,-3.3l3.6,0.6l-2.7,-2.7zm-10.2,-14.4l2.8,-2.4l-3.7,0.3l-1.4,-3.4l-0.9,3.6l-3.7,0.3l3.2,1.9l-0.9,3.6l2.8,-2.4l3.1,1.9l-1.3,-3.4zm-3.8,-17.2l3.5,-1.1l-3.6,-1.1l0,-3.7l-2.2,3l-3.5,-1.2l2.2,3l-2.2,3l3.5,-1.2l2.2,3l0.1,-3.7zm3,-17.3l3.7,0.3l-2.8,-2.4l1.4,-3.4l-3.2,1.9l-2.8,-2.4l0.9,3.6l-3.2,1.9l3.7,0.3l0.8,3.6l1.5,-3.4zm9.4,-14.9l3.3,1.7l-1.7,-3.3l2.6,-2.6l-3.7,0.6l-1.7,-3.3l-0.6,3.7l-3.6,0.6l3.3,1.7l-0.6,3.6l2.7,-2.7zm14.4,-10.1l2.4,2.8l-0.3,-3.7l3.4,-1.4l-3.6,-0.9l-0.3,-3.7l-1.9,3.2l-3.6,-0.9l2.4,2.8l-1.9,3.1l3.4,-1.3zm17.2,-3.9l1.1,3.5l1.1,-3.5l3.7,0l-3,-2.2l1.2,-3.5l-3,2.2l-3,-2.2l1.2,3.5l-3,2.2l3.7,0zm38.1,87.6c0.6,0 1.3,-0.1 1.8,-0.5l0.6,-0.5c0.3,-0.2 0.2,-0.8 -0.2,-0.8l-2,-0.1c-0.6,0 -1.3,0.1 -1.8,0.5l-0.6,0.5c-0.3,0.2 -0.2,0.8 0.2,0.8l2,0.1zm-3.1,2.4c0.6,0.1 1.3,-0.1 1.8,-0.4l0.7,-0.4c0.3,-0.2 0.2,-0.8 -0.1,-0.8l-2,-0.3c-0.6,-0.1 -1.3,0.1 -1.8,0.4l-0.7,0.4c-0.3,0.2 -0.2,0.8 0.1,0.8l2,0.3zm-3.2,2.3c0.6,0.1 1.3,0 1.9,-0.3l0.7,-0.4c0.4,-0.2 0.3,-0.7 -0.1,-0.8l-2,-0.4c-0.6,-0.1 -1.3,0 -1.9,0.3l-0.7,0.4c-0.4,0.2 -0.3,0.8 0.1,0.8l2,0.4zm-3.4,2c0.6,0.2 1.3,0.1 1.9,-0.2l0.7,-0.3c0.4,-0.2 0.3,-0.7 0,-0.8l-2,-0.6c-0.6,-0.2 -1.3,-0.1 -1.9,0.2l-0.7,0.3c-0.4,0.2 -0.3,0.7 0,0.8l2,0.6zm-3.5,1.8c0.6,0.2 1.3,0.2 1.9,0l0.7,-0.3c0.4,-0.1 0.4,-0.7 0,-0.8l-1.9,-0.7c-0.6,-0.2 -1.3,-0.2 -1.9,0l-0.7,0.3c-0.4,0.1 -0.4,0.7 0,0.8l1.9,0.7zm-3.6,1.5c0.6,0.3 1.3,0.3 1.9,0.1l0.7,-0.2c0.4,-0.1 0.4,-0.7 0.1,-0.8l-1.9,-0.8c-0.6,-0.3 -1.3,-0.3 -1.9,-0.1l-0.7,0.2c-0.4,0.1 -0.4,0.7 -0.1,0.8l1.9,0.8zm-3.7,1.3c0.6,0.3 1.2,0.4 1.9,0.2l0.8,-0.2c0.4,-0.1 0.5,-0.6 0.1,-0.8l-1.8,-1c-0.6,-0.3 -1.2,-0.4 -1.9,-0.2l-0.8,0.2c-0.4,0.1 -0.5,0.6 -0.1,0.8l1.8,1zm-3.8,1.1c0.5,0.3 1.2,0.5 1.9,0.4l0.8,-0.1c0.4,-0.1 0.5,-0.6 0.2,-0.8l-1.7,-1.1c-0.5,-0.3 -1.2,-0.5 -1.9,-0.4l-0.8,0.1c-0.4,0.1 -0.5,0.6 -0.2,0.8l1.7,1.1zm-3.8,0.7c0.5,0.4 1.2,0.6 1.8,0.5l0.8,-0.1c0.4,0 0.6,-0.6 0.3,-0.8l-1.7,-1.2c-0.5,-0.4 -1.2,-0.6 -1.8,-0.5l-0.8,0.1c-0.4,0 -0.6,0.6 -0.3,0.8l1.7,1.2zm-3.9,0.5c0.5,0.4 1.1,0.6 1.8,0.6l0.8,0c0.4,0 0.6,-0.5 0.3,-0.8l-1.6,-1.3c-0.5,-0.4 -1.1,-0.6 -1.8,-0.6l-0.8,0c-0.4,0 -0.6,0.5 -0.3,0.8l1.6,1.3zm-4,0.2c0.5,0.4 1.1,0.7 1.7,0.7l0.8,0c0.4,0 0.6,-0.5 0.4,-0.8l-1.5,-1.4c-0.5,-0.4 -1.1,-0.7 -1.7,-0.7l-0.8,0c-0.4,0 -0.6,0.5 -0.4,0.8l1.5,1.4zm-3.9,-0.1c0.4,0.5 1,0.8 1.7,0.9l0.8,0.1c0.4,0.1 0.7,-0.4 0.4,-0.7l-1.4,-1.5c-0.4,-0.5 -1,-0.8 -1.7,-0.9l-0.8,-0.1c-0.4,-0.1 -0.7,0.4 -0.4,0.7l1.4,1.5zm-3.9,-0.3c0.4,0.5 1,0.9 1.6,1l0.8,0.2c0.4,0.1 0.7,-0.4 0.5,-0.7l-1.3,-1.6c-0.4,-0.5 -1,-0.9 -1.6,-1l-0.8,-0.2c-0.4,-0.1 -0.7,0.4 -0.5,0.7l1.3,1.6zm-3.9,-0.6c0.4,0.5 0.9,0.9 1.5,1.1l0.8,0.2c0.4,0.1 0.7,-0.3 0.5,-0.7l-1.1,-1.7c-0.4,-0.5 -0.9,-0.9 -1.5,-1.1l-0.7,-0.2c-0.4,-0.1 -0.7,0.3 -0.5,0.7l1,1.7zm-3.8,-0.9c0.3,0.6 0.8,1 1.5,1.2l0.7,0.3c0.4,0.1 0.8,-0.3 0.6,-0.6l-1,-1.8c-0.3,-0.6 -0.8,-1 -1.5,-1.2l-0.7,-0.3c-0.4,-0.1 -0.8,0.3 -0.6,0.6l1,1.8zm-3.8,-1.1c0.3,0.6 0.8,1 1.4,1.3l0.7,0.3c0.4,0.2 0.8,-0.2 0.6,-0.6l-0.9,-1.8c-0.3,-0.6 -0.8,-1 -1.4,-1.3l-0.7,-0.3c-0.4,-0.2 -0.8,0.2 -0.6,0.6l0.9,1.8zm-3.7,-1.4c0.2,0.6 0.7,1.1 1.3,1.4l0.7,0.4c0.4,0.2 0.8,-0.2 0.6,-0.5l-0.8,-1.9c-0.2,-0.6 -0.7,-1.1 -1.3,-1.4l-0.7,-0.4c-0.4,-0.2 -0.8,0.2 -0.6,0.5l0.8,1.9zm-3.5,-1.7c0.2,0.6 0.6,1.1 1.2,1.5l0.7,0.4c0.3,0.2 0.8,-0.1 0.7,-0.5l-0.6,-2c-0.2,-0.6 -0.6,-1.1 -1.2,-1.5l-0.7,-0.4c-0.3,-0.2 -0.8,0.1 -0.7,0.5l0.6,2zm-3.5,-1.9c0.2,0.6 0.5,1.2 1.1,1.6l0.6,0.4c0.3,0.2 0.8,-0.1 0.7,-0.4l-0.5,-2c-0.2,-0.6 -0.5,-1.2 -1.1,-1.6l-0.6,-0.4c-0.3,-0.2 -0.8,0.1 -0.7,0.4l0.5,2zm-3.3,-2.1c0.1,0.6 0.5,1.2 1,1.6l0.6,0.5c0.3,0.3 0.8,0 0.7,-0.4l-0.4,-2c-0.1,-0.6 -0.4,-1.2 -1,-1.6l-0.6,-0.5c-0.3,-0.3 -0.8,0 -0.7,0.4l0.4,2zm-3.1,-2.4c0.1,0.6 0.4,1.2 0.8,1.7l0.6,0.5c0.3,0.3 0.8,0 0.8,-0.3l-0.2,-2c-0.1,-0.6 -0.4,-1.2 -0.9,-1.7l-0.6,-0.5c-0.3,-0.3 -0.8,0 -0.8,0.3l0.3,2zm-3,-2.6c0,0.6 0.3,1.3 0.7,1.7l0.5,0.6c0.3,0.3 0.8,0.1 0.8,-0.3l-0.1,-2c0,-0.6 -0.3,-1.3 -0.7,-1.7l-0.5,-0.6c-0.3,-0.3 -0.8,-0.1 -0.8,0.3l0.1,2zm-2.7,-2.7c0,0.6 0.2,1.3 0.6,1.8l0.5,0.6c0.3,0.3 0.8,0.2 0.8,-0.2l0.1,-2c0,-0.6 -0.2,-1.3 -0.6,-1.8l-0.5,-0.6c-0.3,-0.3 -0.8,-0.2 -0.8,0.2l-0.1,2zm-2.6,-3c-0.1,0.6 0.1,1.3 0.5,1.8l0.4,0.6c0.2,0.3 0.8,0.2 0.8,-0.2l0.2,-2c0.1,-0.6 -0.1,-1.3 -0.5,-1.8l-0.4,-0.6c-0.2,-0.3 -0.8,-0.2 -0.8,0.2l-0.2,2zm-2.4,-3.1c-0.1,0.6 0,1.3 0.4,1.9l0.4,0.7c0.2,0.3 0.8,0.3 0.8,-0.1l0.4,-2c0.1,-0.6 0,-1.3 -0.4,-1.9l-0.4,-0.7c-0.2,-0.3 -0.8,-0.3 -0.8,0.1l-0.4,2zm-2.1,-3.3c-0.2,0.6 -0.1,1.3 0.2,1.9l0.4,0.7c0.2,0.4 0.7,0.3 0.8,-0.1l0.5,-2c0.2,-0.6 0.1,-1.3 -0.2,-1.9l-0.4,-0.7c-0.2,-0.4 -0.7,-0.3 -0.8,0.1l-0.5,2zm-1.9,-3.5c-0.2,0.6 -0.2,1.3 0.1,1.9l0.3,0.7c0.2,0.4 0.7,0.4 0.8,0l0.6,-1.9c0.2,-0.6 0.2,-1.3 -0.1,-1.9l-0.3,-0.7c-0.2,-0.4 -0.7,-0.4 -0.8,0l-0.6,1.9zm-1.7,-3.5c-0.2,0.6 -0.3,1.3 0,1.9l0.3,0.7c0.1,0.4 0.7,0.4 0.8,0.1l0.8,-1.9c0.2,-0.6 0.3,-1.3 0,-1.9l-0.3,-0.7c-0.1,-0.4 -0.7,-0.4 -0.8,-0.1l-0.8,1.9zm-1.4,-3.7c-0.3,0.6 -0.3,1.2 -0.2,1.9l0.2,0.8c0.1,0.4 0.7,0.5 0.8,0.1l0.9,-1.8c0.3,-0.6 0.3,-1.2 0.2,-1.9l-0.2,-0.8c-0.1,-0.4 -0.7,-0.5 -0.8,-0.1l-0.9,1.8zm-1.2,-3.7c-0.3,0.6 -0.4,1.2 -0.3,1.9l0.1,0.8c0.1,0.4 0.6,0.5 0.8,0.2l1,-1.8c0.3,-0.6 0.4,-1.2 0.3,-1.9l-0.1,-0.8c-0.1,-0.4 -0.6,-0.5 -0.8,-0.2l-1,1.8zm-0.9,-3.9c-0.4,0.5 -0.5,1.2 -0.4,1.8l0.1,0.8c0,0.4 0.6,0.6 0.8,0.2l1.1,-1.7c0.4,-0.5 0.5,-1.2 0.4,-1.8l-0.1,-0.8c0,-0.4 -0.6,-0.6 -0.8,-0.2l-1.1,1.7zm-0.6,-3.9c-0.4,0.5 -0.6,1.1 -0.6,1.8l0,0.8c0,0.4 0.5,0.6 0.8,0.3l1.3,-1.6c0.4,-0.5 0.6,-1.1 0.6,-1.8l0,-0.8c0,-0.4 -0.5,-0.6 -0.8,-0.3l-1.3,1.6zm-0.3,-3.9c-0.4,0.5 -0.7,1.1 -0.7,1.8l0,0.8c0,0.4 0.5,0.6 0.8,0.3l1.4,-1.5c0.4,-0.5 0.7,-1.1 0.7,-1.8l0,-0.8c0,-0.4 -0.5,-0.6 -0.8,-0.3l-1.4,1.5zm-0.1,-3.9c-0.5,0.4 -0.7,1.1 -0.8,1.7l-0.1,0.8c0,0.4 0.5,0.7 0.7,0.4l1.5,-1.4c0.5,-0.4 0.7,-1.1 0.8,-1.7l0.1,-0.8c0,-0.4 -0.5,-0.7 -0.7,-0.4l-1.5,1.4zm0.2,-3.9c-0.5,0.4 -0.8,1 -0.9,1.7l-0.1,0.8c-0.1,0.4 0.4,0.7 0.7,0.4l1.6,-1.3c0.5,-0.4 0.8,-1 0.9,-1.7l0.1,-0.8c0.1,-0.4 -0.4,-0.7 -0.7,-0.4l-1.6,1.3zm0.5,-3.9c-0.5,0.4 -0.9,0.9 -1,1.6l-0.2,0.8c-0.1,0.4 0.4,0.7 0.7,0.5l1.7,-1.2c0.5,-0.4 0.9,-0.9 1,-1.6l0.2,-0.8c0.1,-0.4 -0.4,-0.7 -0.7,-0.5l-1.7,1.2zm0.7,-3.9c-0.5,0.3 -1,0.9 -1.1,1.5l-0.2,0.7c-0.1,0.4 0.3,0.7 0.6,0.5l1.7,-1.1c0.5,-0.3 0.9,-0.9 1.1,-1.5l0.2,-0.7c0.1,-0.4 -0.3,-0.7 -0.6,-0.5l-1.7,1.1zm1,-3.8c-0.6,0.3 -1,0.8 -1.2,1.4l-0.3,0.7c-0.1,0.4 0.3,0.8 0.6,0.6l1.8,-1c0.6,-0.3 1,-0.8 1.2,-1.4l0.3,-0.7c0.1,-0.4 -0.3,-0.8 -0.6,-0.6l-1.8,1zm1.3,-3.7c-0.6,0.3 -1.1,0.7 -1.3,1.3l-0.3,0.7c-0.2,0.4 0.2,0.8 0.6,0.6l1.9,-0.8c0.6,-0.3 1.1,-0.7 1.3,-1.3l0.3,-0.7c0.2,-0.4 -0.2,-0.8 -0.6,-0.6l-1.9,0.8zm1.5,-3.6c-0.6,0.2 -1.1,0.7 -1.4,1.2l-0.4,0.7c-0.2,0.4 0.2,0.8 0.5,0.7l1.9,-0.7c0.6,-0.2 1.1,-0.7 1.4,-1.2l0.4,-0.7c0.2,-0.4 -0.1,-0.8 -0.5,-0.7l-1.9,0.7zm1.8,-3.5c-0.6,0.2 -1.2,0.6 -1.5,1.1l-0.4,0.7c-0.2,0.3 0.1,0.8 0.5,0.7l2,-0.6c0.6,-0.2 1.2,-0.6 1.5,-1.1l0.4,-0.7c0.2,-0.3 -0.1,-0.8 -0.5,-0.7l-2,0.6zm2,-3.4c-0.6,0.1 -1.2,0.5 -1.6,1l-0.5,0.6c-0.2,0.3 0,0.8 0.4,0.7l2,-0.4c0.6,-0.1 1.2,-0.5 1.6,-1l0.5,-0.6c0.2,-0.3 0,-0.8 -0.4,-0.7l-2,0.4zm2.3,-3.2c-0.6,0.1 -1.2,0.4 -1.7,0.9l-0.5,0.6c-0.3,0.3 0,0.8 0.4,0.8l2,-0.3c0.6,-0.1 1.2,-0.4 1.7,-0.9l0.5,-0.6c0.3,-0.3 0,-0.8 -0.4,-0.8l-2,0.3zm2.5,-3c-0.6,0 -1.2,0.3 -1.7,0.8l-0.6,0.5c-0.3,0.3 -0.1,0.8 0.3,0.8l2,-0.1c0.6,0 1.2,-0.3 1.7,-0.8l0.6,-0.5c0.3,-0.3 0.1,-0.8 -0.3,-0.8l-2,0.1zm2.6,-2.9c-0.6,0 -1.3,0.2 -1.8,0.7l-0.6,0.5c-0.3,0.3 -0.1,0.8 0.3,0.8l2,0c0.6,0 1.3,-0.2 1.8,-0.7l0.6,-0.5c0.3,-0.3 0.1,-0.8 -0.3,-0.8l-2,0zm2.9,-2.7c-0.6,0 -1.3,0.1 -1.8,0.5l-0.6,0.5c-0.3,0.2 -0.2,0.8 0.2,0.8l2,0.1c0.6,0 1.3,-0.1 1.8,-0.5l0.6,-0.5c0.3,-0.2 0.2,-0.8 -0.2,-0.8l-2,-0.1zm3.1,-2.5c-0.6,-0.1 -1.3,0.1 -1.8,0.4l-0.7,0.4c-0.3,0.2 -0.2,0.8 0.1,0.8l2,0.3c0.6,0.1 1.3,-0.1 1.8,-0.4l0.7,-0.4c0.3,-0.2 0.2,-0.8 -0.1,-0.8l-2,-0.3zm3.2,-2.2c-0.6,-0.1 -1.3,0 -1.9,0.3l-0.7,0.4c-0.4,0.2 -0.3,0.8 0.1,0.8l2,0.4c0.6,0.1 1.3,0 1.9,-0.3l0.7,-0.4c0.4,-0.2 0.3,-0.7 -0.1,-0.8l-2,-0.4zm3.3,-2.1c-0.6,-0.2 -1.3,-0.1 -1.9,0.2l-0.7,0.3c-0.4,0.2 -0.3,0.7 0,0.8l2,0.6c0.6,0.2 1.3,0.1 1.9,-0.2l0.7,-0.3c0.4,-0.2 0.3,-0.7 0,-0.8l-2,-0.6zm3.5,-1.7c-0.6,-0.2 -1.3,-0.2 -1.9,0l-0.7,0.3c-0.4,0.1 -0.4,0.7 0,0.8l1.9,0.7c0.6,0.2 1.3,0.2 1.9,0l0.7,-0.3c0.4,-0.1 0.4,-0.7 0,-0.8l-1.9,-0.7zm3.7,-1.6c-0.6,-0.3 -1.3,-0.3 -1.9,-0.1l-0.7,0.2c-0.4,0.1 -0.4,0.7 -0.1,0.8l1.9,0.8c0.6,0.3 1.3,0.3 1.9,0.1l0.7,-0.2c0.4,-0.1 0.4,-0.7 0.1,-0.8l-1.9,-0.8zm3.7,-1.3c-0.6,-0.3 -1.2,-0.4 -1.9,-0.2l-0.8,0.2c-0.4,0.1 -0.5,0.6 -0.1,0.8l1.8,1c0.6,0.3 1.2,0.4 1.9,0.2l0.8,-0.2c0.4,-0.1 0.5,-0.6 0.1,-0.8l-1.8,-1zm3.8,-1c-0.5,-0.3 -1.2,-0.5 -1.9,-0.4l-0.8,0.1c-0.4,0.1 -0.5,0.6 -0.2,0.8l1.7,1.1c0.5,0.3 1.2,0.5 1.9,0.4l0.8,-0.1c0.4,-0.1 0.5,-0.6 0.2,-0.8l-1.7,-1.1zm3.8,-0.7c-0.5,-0.4 -1.2,-0.6 -1.8,-0.5l-0.8,0.1c-0.4,0 -0.6,0.6 -0.3,0.8l1.7,1.2c0.5,0.4 1.2,0.6 1.8,0.5l0.8,-0.1c0.4,0 0.6,-0.6 0.3,-0.8l-1.7,-1.2zm3.9,-0.5c-0.5,-0.4 -1.1,-0.6 -1.8,-0.6l-0.8,0c-0.4,0 -0.6,0.5 -0.3,0.8l1.6,1.3c0.5,0.4 1.1,0.6 1.8,0.6l0.8,0c0.4,0 0.6,-0.5 0.3,-0.8l-1.6,-1.3zm3.9,-0.2c-0.5,-0.4 -1.1,-0.7 -1.7,-0.7l-0.8,0c-0.4,0 -0.6,0.5 -0.4,0.8l1.5,1.4c0.5,0.4 1.1,0.7 1.7,0.7l0.8,0c0.4,0 0.6,-0.5 0.4,-0.8l-1.5,-1.4zm4,0c-0.4,-0.5 -1,-0.8 -1.7,-0.9l-0.8,-0.1c-0.4,0 -0.7,0.4 -0.4,0.7l1.4,1.5c0.4,0.5 1,0.8 1.7,0.9l0.8,0.1c0.4,0.1 0.7,-0.4 0.4,-0.7l-1.4,-1.5zm3.9,0.4c-0.4,-0.5 -1,-0.9 -1.6,-1l-0.8,-0.2c-0.4,-0.1 -0.7,0.4 -0.5,0.7l1.3,1.6c0.4,0.5 1,0.9 1.6,1l0.8,0.1c0.4,0.1 0.7,-0.4 0.5,-0.7l-1.3,-1.5zm3.9,0.6c-0.4,-0.5 -0.9,-0.9 -1.5,-1.1l-0.8,-0.2c-0.4,-0.1 -0.7,0.3 -0.5,0.7l1.1,1.7c0.4,0.5 0.9,0.9 1.5,1.1l0.7,0.2c0.4,0.1 0.7,-0.3 0.5,-0.7l-1,-1.7zm3.8,0.9c-0.3,-0.6 -0.8,-1 -1.5,-1.2l-0.7,-0.3c-0.4,-0.1 -0.8,0.3 -0.6,0.6l1,1.8c0.3,0.6 0.8,1 1.5,1.2l0.7,0.3c0.4,0.1 0.8,-0.3 0.6,-0.6l-1,-1.8zm3.8,1.1c-0.3,-0.6 -0.8,-1 -1.4,-1.3l-0.7,-0.3c-0.4,-0.2 -0.8,0.2 -0.6,0.6l0.9,1.8c0.3,0.6 0.8,1 1.4,1.3l0.7,0.3c0.4,0.2 0.8,-0.2 0.6,-0.6l-0.9,-1.8zm3.6,1.4c-0.2,-0.6 -0.7,-1.1 -1.3,-1.4l-0.7,-0.4c-0.4,-0.2 -0.8,0.2 -0.6,0.5l0.8,1.9c0.2,0.6 0.7,1.1 1.3,1.4l0.7,0.4c0.4,0.2 0.8,-0.2 0.6,-0.5l-0.8,-1.9zm3.6,1.7c-0.2,-0.6 -0.6,-1.1 -1.2,-1.5l-0.7,-0.4c-0.3,-0.2 -0.8,0.1 -0.7,0.5l0.6,1.9c0.2,0.6 0.6,1.1 1.2,1.5l0.7,0.4c0.3,0.2 0.8,-0.1 0.7,-0.5l-0.6,-1.9zm3.4,1.9c-0.2,-0.6 -0.5,-1.2 -1.1,-1.6l-0.6,-0.4c-0.3,-0.2 -0.8,0.1 -0.7,0.4l0.5,2c0.2,0.6 0.5,1.2 1.1,1.6l0.6,0.4c0.3,0.2 0.8,-0.1 0.7,-0.4l-0.5,-2zm3.3,2.1c-0.1,-0.6 -0.5,-1.2 -1,-1.6l-0.6,-0.5c-0.3,-0.3 -0.8,0 -0.7,0.4l0.4,2c0.1,0.6 0.5,1.2 1,1.6l0.6,0.5c0.3,0.3 0.8,0 0.7,-0.4l-0.4,-2zm3.2,2.4c-0.1,-0.6 -0.4,-1.2 -0.9,-1.7l-0.6,-0.5c-0.3,-0.3 -0.8,0 -0.8,0.3l0.2,2c0.1,0.6 0.4,1.2 0.9,1.7l0.6,0.5c0.3,0.3 0.8,0 0.8,-0.3l-0.2,-2zm2.9,2.5c0,-0.6 -0.3,-1.3 -0.7,-1.7l-0.5,-0.6c-0.3,-0.3 -0.8,-0.1 -0.8,0.3l0.1,2c0,0.6 0.3,1.3 0.7,1.7l0.5,0.6c0.3,0.3 0.8,0.1 0.8,-0.3l-0.1,-2zm2.8,2.8c0,-0.6 -0.2,-1.3 -0.6,-1.8l-0.5,-0.6c-0.3,-0.3 -0.8,-0.2 -0.8,0.2l-0.1,2c0,0.6 0.2,1.3 0.6,1.8l0.5,0.6c0.3,0.3 0.8,0.2 0.8,-0.2l0.1,-2zm2.6,3c0.1,-0.6 -0.1,-1.3 -0.5,-1.8l-0.4,-0.6c-0.2,-0.3 -0.8,-0.2 -0.8,0.2l-0.2,2c-0.1,0.6 0.1,1.3 0.5,1.8l0.4,0.6c0.2,0.3 0.8,0.2 0.8,-0.2l0.2,-2zm2.4,3.1c0.1,-0.6 0,-1.3 -0.4,-1.9l-0.4,-0.7c-0.2,-0.3 -0.8,-0.3 -0.8,0.1l-0.4,2c-0.1,0.6 0,1.3 0.4,1.9l0.4,0.7c0.2,0.3 0.8,0.3 0.8,-0.1l0.4,-2zm2.1,3.3c0.2,-0.6 0.1,-1.3 -0.2,-1.9l-0.4,-0.7c-0.2,-0.4 -0.7,-0.3 -0.8,0.1l-0.5,2c-0.2,0.6 -0.1,1.3 0.2,1.9l0.4,0.7c0.2,0.4 0.7,0.3 0.8,-0.1l0.5,-2zm1.9,3.4c0.2,-0.6 0.2,-1.3 -0.1,-1.9l-0.3,-0.7c-0.2,-0.4 -0.7,-0.4 -0.8,0l-0.6,1.9c-0.2,0.6 -0.2,1.3 0.1,1.9l0.3,0.7c0.2,0.4 0.7,0.4 0.8,0l0.6,-1.9zm1.7,3.6c0.2,-0.6 0.3,-1.3 0,-1.9l-0.3,-0.7c-0.1,-0.4 -0.7,-0.4 -0.8,-0.1l-0.8,1.9c-0.2,0.6 -0.3,1.3 0,1.9l0.3,0.7c0.1,0.4 0.7,0.4 0.8,0.1l0.8,-1.9zm1.4,3.7c0.3,-0.6 0.3,-1.2 0.2,-1.9l-0.2,-0.8c-0.1,-0.4 -0.7,-0.5 -0.8,-0.1l-0.9,1.8c-0.3,0.6 -0.3,1.2 -0.2,1.9l0.2,0.8c0.1,0.4 0.7,0.5 0.8,0.1l0.9,-1.8zm1.1,3.7c0.3,-0.6 0.4,-1.2 0.3,-1.9l-0.1,-0.8c-0.1,-0.4 -0.6,-0.5 -0.8,-0.2l-1,1.8c-0.3,0.6 -0.4,1.2 -0.3,1.9l0.1,0.8c0.1,0.4 0.6,0.5 0.8,0.2l1,-1.8zm0.9,3.8c0.4,-0.5 0.5,-1.2 0.4,-1.8l-0.1,-0.8c0,-0.4 -0.6,-0.6 -0.8,-0.2l-1.1,1.7c-0.4,0.5 -0.5,1.2 -0.4,1.8l0.1,0.8c0,0.4 0.6,0.6 0.8,0.2l1.1,-1.7zm0.7,3.9c0.4,-0.5 0.6,-1.1 0.6,-1.8l0,-0.8c0,-0.4 -0.5,-0.6 -0.8,-0.3l-1.3,1.6c-0.4,0.5 -0.6,1.1 -0.6,1.8l0,0.8c0,0.4 0.5,0.6 0.8,0.3l1.3,-1.6zm0.3,3.9c0.4,-0.5 0.7,-1.1 0.7,-1.8l0,-0.8c0,-0.4 -0.5,-0.6 -0.8,-0.3l-1.4,1.5c-0.4,0.5 -0.7,1.1 -0.7,1.8l0,0.8c0,0.4 0.5,0.6 0.8,0.3l1.4,-1.5zm0.1,4c0.5,-0.4 0.7,-1.1 0.8,-1.7l0.1,-0.8c0,-0.4 -0.5,-0.7 -0.7,-0.4l-1.5,1.4c-0.5,0.4 -0.7,1.1 -0.8,1.7l-0.1,0.8c0,0.4 0.5,0.7 0.7,0.4l1.5,-1.4zm-0.2,3.9c0.5,-0.4 0.8,-1 0.9,-1.7l0.1,-0.8c0.1,-0.4 -0.4,-0.7 -0.7,-0.4l-1.6,1.3c-0.5,0.4 -0.8,1 -0.9,1.7l-0.1,0.8c-0.1,0.4 0.4,0.7 0.7,0.4l1.6,-1.3zm-0.5,3.9c0.5,-0.4 0.9,-0.9 1,-1.6l0.2,-0.8c0.1,-0.4 -0.4,-0.7 -0.7,-0.5l-1.7,1.2c-0.5,0.4 -0.9,0.9 -1,1.6l-0.2,0.8c-0.1,0.4 0.4,0.7 0.7,0.5l1.7,-1.2zm-0.7,3.8c0.5,-0.3 1,-0.9 1.1,-1.5l0.2,-0.7c0.1,-0.4 -0.3,-0.7 -0.6,-0.5l-1.7,1.1c-0.5,0.3 -1,0.9 -1.1,1.5l-0.2,0.7c-0.1,0.4 0.3,0.7 0.6,0.5l1.7,-1.1zm-1.1,3.8c0.6,-0.3 1,-0.8 1.2,-1.4l0.3,-0.7c0.1,-0.4 -0.3,-0.8 -0.6,-0.6l-1.8,1c-0.6,0.3 -1,0.8 -1.2,1.4l-0.3,0.7c-0.1,0.4 0.3,0.8 0.6,0.6l1.8,-1zm-1.2,3.7c0.6,-0.3 1.1,-0.7 1.3,-1.3l0.3,-0.7c0.2,-0.4 -0.2,-0.8 -0.6,-0.6l-1.9,0.8c-0.6,0.3 -1.1,0.7 -1.3,1.3l-0.3,0.7c-0.2,0.4 0.2,0.8 0.6,0.6l1.9,-0.8zm-1.6,3.7c0.6,-0.2 1.1,-0.7 1.4,-1.2l0.4,-0.7c0.2,-0.4 -0.1,-0.8 -0.5,-0.7l-1.9,0.7c-0.6,0.2 -1.1,0.7 -1.4,1.2l-0.4,0.7c-0.2,0.4 0.1,0.8 0.5,0.7l1.9,-0.7zm-1.7,3.5c0.6,-0.2 1.2,-0.6 1.5,-1.1l0.4,-0.7c0.2,-0.3 -0.1,-0.8 -0.5,-0.7l-2,0.6c-0.6,0.2 -1.2,0.6 -1.5,1.1l-0.4,0.6c-0.2,0.3 0.1,0.8 0.5,0.7l2,-0.5zm-2.1,3.3c0.6,-0.1 1.2,-0.5 1.6,-1l0.5,-0.6c0.2,-0.3 0,-0.8 -0.4,-0.7l-2,0.4c-0.6,0.1 -1.2,0.5 -1.6,1l-0.5,0.6c-0.2,0.3 0,0.8 0.4,0.7l2,-0.4zm-2.2,3.3c0.6,-0.1 1.2,-0.4 1.7,-0.9l0.5,-0.6c0.3,-0.3 0,-0.8 -0.4,-0.7l-2,0.3c-0.6,0.1 -1.2,0.4 -1.7,0.9l-0.5,0.6c-0.3,0.3 0,0.8 0.4,0.8l2,-0.4zm-2.5,3c0.6,0 1.2,-0.3 1.7,-0.8l0.6,-0.5c0.3,-0.3 0.1,-0.8 -0.3,-0.8l-2,0.1c-0.6,0 -1.2,0.3 -1.7,0.8l-0.6,0.5c-0.3,0.3 -0.1,0.8 0.3,0.8l2,-0.1zm-2.7,2.9l-2,0c-0.4,0 -0.6,-0.5 -0.3,-0.8l0.6,-0.5c0.5,-0.4 1.1,-0.7 1.8,-0.7l2,0c0.4,0 0.6,0.5 0.3,0.8l-0.6,0.5c-0.5,0.4 -1.1,0.7 -1.8,0.7" class="st0"/>
   <rect id="svg_57" height="114.5" width="1" class="st0" y="17.9" x="474.3"/>
  </g>
 </g>
</svg>