<?xml version="1.0" encoding="utf-8"?>
<!-- Generator: Adobe Illustrator 22.0.1, SVG Export Plug-In . SVG Version: 6.00 Build 0)  -->
<svg version="1.1" id="katman_1" xmlns="http://www.w3.org/2000/svg" xmlns:xlink="http://www.w3.org/1999/xlink" x="0px" y="0px"
	 viewBox="0 0 624.7 150.3" style="enable-background:new 0 0 624.7 150.3;" xml:space="preserve">
<style type="text/css">
	.st0{fill:#54565A;}
	.st1{fill:#00ADBB;}
</style>
<g>
	<g>
		<path class="st0" d="M178.8,125.6C178.8,125.6,178.8,125.5,178.8,125.6l-0.8-0.2c0,0-0.1,0-0.1-0.1V125c0,0,0-0.1,0.1-0.1h2.3
			c0,0,0.1,0,0.1,0.1v0.3c0,0,0,0.1,0,0.1l-0.6,0.1c0,0-0.1,0-0.1,0.1v3.7c0,1.1-0.2,2.2-0.6,2.9c-0.5,0.8-1.3,1.2-2.6,1.2
			c-1.1,0-1.9-0.5-2.3-0.9c-0.6-0.7-0.9-1.6-0.9-3v-3.7c0,0,0-0.1,0-0.1l-0.8-0.2c0,0-0.1,0-0.1-0.1V125c0-0.1,0-0.1,0.1-0.1h2.8
			c0,0,0.1,0,0.1,0.1v0.3c0,0,0,0.1,0,0.1l-0.7,0.1c-0.1,0-0.1,0.1-0.1,0.1v3.5c0,0.9,0,1.7,0.5,2.4c0.3,0.5,1,0.9,1.9,0.9
			c0.9,0,1.4-0.4,1.7-1c0.3-0.6,0.4-1.4,0.4-2.4V125.6z"/>
		<path class="st0" d="M183.8,125.4c-0.9,0-1.5,0.4-1.5,1.3c0,0.5,0.3,0.9,0.7,1.1c0.2,0.1,0.3,0.2,0.6,0.3c0.4,0.2,0.9,0.5,1.4,0.7
			c0.5,0.2,1.1,0.5,1.4,1.2c0.1,0.3,0.2,0.6,0.2,1c0,0.7-0.3,1.4-0.8,1.8c-0.5,0.4-1.2,0.7-1.9,0.7c-0.8,0-1.8-0.2-2.7-0.6
			c-0.1,0-0.1-0.1-0.1-0.1l0.5-1.5c0-0.1,0.1-0.1,0.1-0.1l0.2,0c0.1,0,0.1,0,0.1,0.1c0,0.2,0.1,0.6,0.4,1c0.2,0.3,0.7,0.6,1.4,0.6
			c1.1,0,1.8-0.6,1.8-1.5c0-0.5-0.3-0.9-0.7-1.1c-0.3-0.2-0.8-0.4-1.3-0.7c-0.5-0.2-1-0.5-1.3-0.7c-0.4-0.2-0.6-0.5-0.8-0.8
			c-0.2-0.3-0.2-0.6-0.2-0.9c0-0.7,0.3-1.3,0.8-1.7c0.5-0.4,1.1-0.6,1.8-0.6c0.7,0,1.5,0.2,2.2,0.5c0.1,0,0.1,0.1,0.1,0.1l-0.4,1.3
			c0,0.1,0,0.1-0.1,0.1l-0.2,0c0,0-0.1,0-0.1-0.1c0-0.3-0.1-0.6-0.4-0.8C184.7,125.5,184.3,125.4,183.8,125.4z"/>
		<path class="st0" d="M193.5,129.3h-4.2v3.1c0,0,0,0.1,0,0.1l0.9,0.2c0,0,0.1,0,0.1,0.1v0.3c0,0.1,0,0.1-0.1,0.1h-2.9
			c0,0-0.1,0-0.1-0.1v-0.3c0,0,0-0.1,0.1-0.1l0.6-0.1c0.2,0,0.2-0.2,0.2-0.3v-6.6c0,0,0-0.1-0.1-0.1l-0.9-0.2c0,0-0.1,0-0.1-0.1V125
			c0-0.1,0-0.1,0.1-0.1h2.9c0,0,0.1,0,0.1,0.1v0.3c0,0,0,0.1,0,0.1l-0.7,0.1c-0.2,0-0.2,0.2-0.2,0.3v2.7h4.2v-2.7
			c0-0.1,0-0.1-0.1-0.1l-0.9-0.2c0,0-0.1,0-0.1-0.1V125c0-0.1,0-0.1,0.1-0.1h2.9c0,0,0.1,0,0.1,0.1v0.3c0,0,0,0.1,0,0.1l-0.6,0.1
			c-0.2,0-0.2,0.2-0.2,0.3v6.6c0,0,0,0.1,0,0.1l0.9,0.2c0,0,0.1,0,0.1,0.1v0.3c0,0.1,0,0.1-0.1,0.1h-2.9c0,0-0.1,0-0.1-0.1v-0.3
			c0,0,0-0.1,0-0.1l0.7-0.1c0.2,0,0.2-0.2,0.2-0.3V129.3z"/>
		<path class="st0" d="M201.8,130.4h-2.9l-0.7,2.1c0,0,0,0.1,0,0.1l0.6,0.2c0,0,0.1,0,0.1,0.1v0.3c0,0.1,0,0.1-0.1,0.1h-2.3
			c0,0-0.1,0-0.1-0.1v-0.3c0,0,0-0.1,0-0.1c0.1,0,0.2-0.1,0.3-0.1c0.2,0,0.4-0.1,0.5-0.2c0,0,0.1-0.1,0.1-0.1l2.6-6.9
			c0-0.1,0.1-0.2,0.2-0.2c0.2-0.1,0.4-0.2,0.5-0.3c0.1-0.1,0.2-0.1,0.2-0.1c0,0,0.1,0,0.1,0l2.7,7.4c0.1,0.2,0.2,0.3,0.3,0.3
			l0.6,0.2c0,0,0,0,0,0.1v0.4c0,0,0,0.1-0.1,0.1h-2.7c0,0-0.1,0-0.1-0.1v-0.4c0,0,0-0.1,0-0.1l0.7-0.2c0,0,0.1,0,0-0.1L201.8,130.4z
			 M199.2,129.6h2.4l-1.1-3.2c0,0,0-0.1-0.1-0.1c-0.1,0-0.1,0-0.1,0.1L199.2,129.6z"/>
		<path class="st0" d="M210.9,131c0,0.7-0.3,1.4-0.8,1.8c-0.4,0.3-0.9,0.6-1.5,0.6l-0.1,0.4c0,0,0,0,0,0c0,0,0.1,0,0.1,0
			c0.4,0.1,0.8,0.3,1,0.6c0.1,0.3,0.1,0.6,0,0.9c-0.1,0.3-0.4,0.5-0.7,0.6c-0.1,0-0.3,0.1-0.5,0.1c-0.2,0-0.5,0.1-0.6,0.1
			c0,0,0,0-0.1,0l-0.1-0.3c0,0,0-0.1,0-0.1c0,0,0.1,0,0.2,0c0.2,0,0.5-0.2,0.8-0.3c0.1-0.1,0.2-0.2,0.2-0.3s-0.1-0.3-0.2-0.4
			c-0.1-0.1-0.4-0.2-0.7-0.3c0,0,0,0-0.1,0c0,0-0.1,0-0.1,0l0-0.1c0,0,0,0,0-0.1c0,0,0,0,0-0.1l0.3-0.7c-0.7,0-1.6-0.3-2.5-0.6
			c-0.1,0-0.1-0.1-0.1-0.1l0.5-1.5c0-0.1,0.1-0.1,0.1-0.1l0.2,0c0.1,0,0.1,0,0.1,0.1c0,0.2,0.1,0.6,0.4,1c0.2,0.3,0.7,0.6,1.4,0.6
			c1.1,0,1.8-0.6,1.8-1.5c0-0.5-0.3-0.9-0.7-1.1c-0.3-0.2-0.8-0.4-1.3-0.7c-0.5-0.2-1-0.5-1.3-0.7c-0.4-0.2-0.6-0.5-0.8-0.8
			c-0.2-0.3-0.2-0.6-0.2-0.9c0-0.7,0.3-1.3,0.8-1.7c0.5-0.4,1.1-0.6,1.8-0.6c0.7,0,1.5,0.2,2.2,0.5c0.1,0,0.1,0.1,0.1,0.1l-0.4,1.3
			c0,0.1,0,0.1-0.1,0.1l-0.2,0c0,0-0.1,0-0.1-0.1c0-0.3-0.1-0.6-0.4-0.8c-0.2-0.2-0.6-0.4-1.1-0.4c-0.9,0-1.5,0.4-1.5,1.3
			c0,0.5,0.3,0.9,0.7,1.1c0.2,0.1,0.3,0.2,0.6,0.3c0.4,0.2,0.9,0.5,1.4,0.7c0.5,0.2,1.1,0.5,1.4,1.2
			C210.9,130.4,210.9,130.7,210.9,131z"/>
		<path class="st0" d="M221.1,125.6C221.1,125.6,221.1,125.5,221.1,125.6l-0.8-0.2c0,0-0.1,0-0.1-0.1V125c0,0,0-0.1,0.1-0.1h2.3
			c0,0,0.1,0,0.1,0.1v0.3c0,0,0,0.1,0,0.1l-0.6,0.1c0,0-0.1,0-0.1,0.1v3.7c0,1.1-0.2,2.2-0.6,2.9c-0.5,0.8-1.3,1.2-2.6,1.2
			c-1.1,0-1.9-0.5-2.3-0.9c-0.6-0.7-0.9-1.6-0.9-3v-3.7c0,0,0-0.1,0-0.1l-0.8-0.2c0,0-0.1,0-0.1-0.1V125c0-0.1,0-0.1,0.1-0.1h2.8
			c0,0,0.1,0,0.1,0.1v0.3c0,0,0,0.1,0,0.1l-0.7,0.1c-0.1,0-0.1,0.1-0.1,0.1v3.5c0,0.9,0,1.7,0.5,2.4c0.3,0.5,1,0.9,1.9,0.9
			c0.9,0,1.4-0.4,1.7-1c0.3-0.6,0.4-1.4,0.4-2.4V125.6z"/>
		<path class="st0" d="M225.6,131.6c0,0.6,0,1,0.4,1c0,0,0.1,0,0.3,0h0.4c0.3,0,0.7,0,0.9,0c0.4,0,0.7-0.1,0.9-0.2
			c0.2-0.1,0.3-0.4,0.5-0.7c0,0,0,0,0.1,0l0.5,0c0,0,0.1,0,0,0.1l-0.3,1.5c0,0.1,0,0.2-0.1,0.2h-5.8c0,0,0,0,0,0v-0.4
			c0,0,0-0.1,0-0.1l0.6-0.1c0.2,0,0.2-0.2,0.2-0.3v-6.5c0,0,0-0.1,0-0.1l-0.9-0.2c0,0-0.1,0-0.1-0.1V125c0-0.1,0-0.1,0.1-0.1h2.8
			c0,0,0.1,0,0.1,0.1v0.3c0,0,0,0.1,0,0.1l-0.6,0.1c-0.2,0-0.2,0.2-0.2,0.3V131.6z"/>
		<path class="st0" d="M236.3,125.6C236.3,125.6,236.3,125.5,236.3,125.6l-0.8-0.2c0,0-0.1,0-0.1-0.1V125c0,0,0-0.1,0.1-0.1h2.3
			c0,0,0.1,0,0.1,0.1v0.3c0,0,0,0.1,0,0.1l-0.6,0.1c0,0-0.1,0-0.1,0.1v3.7c0,1.1-0.2,2.2-0.6,2.9c-0.5,0.8-1.3,1.2-2.6,1.2
			c-1.1,0-1.9-0.5-2.3-0.9c-0.6-0.7-0.9-1.6-0.9-3v-3.7c0,0,0-0.1,0-0.1l-0.8-0.2c0,0-0.1,0-0.1-0.1V125c0-0.1,0-0.1,0.1-0.1h2.8
			c0,0,0.1,0,0.1,0.1v0.3c0,0,0,0.1,0,0.1l-0.7,0.1c-0.1,0-0.1,0.1-0.1,0.1v3.5c0,0.9,0,1.7,0.5,2.4c0.3,0.5,1,0.9,1.9,0.9
			c0.9,0,1.4-0.4,1.7-1c0.3-0.6,0.4-1.4,0.4-2.4V125.6z"/>
		<path class="st0" d="M241.3,125.4c-0.9,0-1.5,0.4-1.5,1.3c0,0.5,0.3,0.9,0.7,1.1c0.2,0.1,0.3,0.2,0.6,0.3c0.4,0.2,0.9,0.5,1.4,0.7
			c0.5,0.2,1.1,0.5,1.4,1.2c0.1,0.3,0.2,0.6,0.2,1c0,0.7-0.3,1.4-0.8,1.8c-0.5,0.4-1.2,0.7-1.9,0.7c-0.8,0-1.8-0.2-2.7-0.6
			c-0.1,0-0.1-0.1-0.1-0.1l0.5-1.5c0-0.1,0.1-0.1,0.1-0.1l0.2,0c0.1,0,0.1,0,0.1,0.1c0,0.2,0.1,0.6,0.4,1c0.2,0.3,0.7,0.6,1.4,0.6
			c1.1,0,1.8-0.6,1.8-1.5c0-0.5-0.3-0.9-0.7-1.1c-0.3-0.2-0.8-0.4-1.3-0.7c-0.5-0.2-1-0.5-1.3-0.7c-0.4-0.2-0.6-0.5-0.8-0.8
			c-0.2-0.3-0.2-0.6-0.2-0.9c0-0.7,0.3-1.3,0.8-1.7c0.5-0.4,1.1-0.6,1.8-0.6c0.7,0,1.5,0.2,2.2,0.5c0.1,0,0.1,0.1,0.1,0.1l-0.4,1.3
			c0,0.1,0,0.1-0.1,0.1l-0.2,0c0,0-0.1,0-0.1-0.1c0-0.3-0.1-0.6-0.4-0.8C242.1,125.5,241.8,125.4,241.3,125.4z"/>
		<path class="st0" d="M246.8,131.6c0,0.6,0,1,0.4,1c0,0,0.1,0,0.3,0h0.4c0.3,0,0.7,0,0.9,0c0.4,0,0.7-0.1,0.9-0.2
			c0.2-0.1,0.3-0.4,0.5-0.7c0,0,0,0,0.1,0l0.5,0c0,0,0.1,0,0,0.1l-0.3,1.5c0,0.1,0,0.2-0.1,0.2h-5.8c0,0,0,0,0,0v-0.4
			c0,0,0-0.1,0-0.1l0.6-0.1c0.2,0,0.2-0.2,0.2-0.3v-6.5c0,0,0-0.1,0-0.1l-0.9-0.2c0,0-0.1,0-0.1-0.1V125c0-0.1,0-0.1,0.1-0.1h2.8
			c0,0,0.1,0,0.1,0.1v0.3c0,0,0,0.1,0,0.1l-0.6,0.1c-0.2,0-0.2,0.2-0.2,0.3V131.6z"/>
		<path class="st0" d="M256.8,130.4h-2.9l-0.7,2.1c0,0,0,0.1,0,0.1l0.6,0.2c0,0,0.1,0,0.1,0.1v0.3c0,0.1,0,0.1-0.1,0.1h-2.3
			c0,0-0.1,0-0.1-0.1v-0.3c0,0,0-0.1,0-0.1c0.1,0,0.2-0.1,0.3-0.1c0.2,0,0.4-0.1,0.5-0.2c0,0,0.1-0.1,0.1-0.1l2.6-6.9
			c0-0.1,0.1-0.2,0.2-0.2c0.2-0.1,0.4-0.2,0.5-0.3c0.1-0.1,0.2-0.1,0.2-0.1c0,0,0.1,0,0.1,0l2.7,7.4c0.1,0.2,0.2,0.3,0.3,0.3
			l0.6,0.2c0,0,0,0,0,0.1v0.4c0,0,0,0.1-0.1,0.1h-2.7c0,0-0.1,0-0.1-0.1v-0.4c0,0,0-0.1,0-0.1l0.7-0.2c0,0,0.1,0,0-0.1L256.8,130.4z
			 M254.2,129.6h2.4l-1.1-3.2c0,0,0-0.1-0.1-0.1c-0.1,0-0.1,0-0.1,0.1L254.2,129.6z"/>
		<path class="st0" d="M264.4,129.4c0.6,0.9,1.1,1.6,1.6,2c0.4,0.5,0.8,0.7,1,0.9c0.2,0.1,0.3,0.1,0.5,0.2c0,0,0,0,0,0v0.4
			c0,0,0,0,0,0.1c0,0,0,0.1-0.1,0.1c-0.2,0.1-0.5,0.2-0.7,0.2c-0.3,0-0.7-0.2-1-0.5c-0.4-0.3-0.8-0.9-1.2-1.6l-1-1.6h-1v2.8
			c0,0,0,0.1,0,0.1l0.9,0.2c0,0,0,0,0,0.1v0.4c0,0.1,0,0.1-0.1,0.1h-2.8c0,0-0.1,0-0.1-0.1v-0.3c0,0,0-0.1,0-0.1l0.6-0.1
			c0.2,0,0.2-0.1,0.2-0.3v-6.5c0,0,0-0.1-0.1-0.1l-0.8-0.2c0,0,0,0,0-0.1V125c0-0.1,0-0.1,0.1-0.1h3.1c0.8,0,1.5,0.2,2,0.6
			c0.5,0.4,0.8,0.9,0.8,1.6c0,0.7-0.3,1.2-0.6,1.6C265.3,129.1,264.8,129.3,264.4,129.4z M262.4,129h0.9c0.7,0,1.2-0.2,1.5-0.5
			c0.3-0.3,0.4-0.8,0.4-1.3c0-0.9-0.5-1.6-1.8-1.6c-0.4,0-0.7,0-1,0.1V129z"/>
		<path class="st0" d="M273.5,130.4h-2.9l-0.7,2.1c0,0,0,0.1,0,0.1l0.6,0.2c0,0,0.1,0,0.1,0.1v0.3c0,0.1,0,0.1-0.1,0.1h-2.3
			c0,0-0.1,0-0.1-0.1v-0.3c0,0,0-0.1,0-0.1c0.1,0,0.2-0.1,0.3-0.1c0.2,0,0.4-0.1,0.5-0.2c0,0,0.1-0.1,0.1-0.1l2.6-6.9
			c0-0.1,0.1-0.2,0.2-0.2c0.2-0.1,0.4-0.2,0.5-0.3c0.1-0.1,0.2-0.1,0.2-0.1c0,0,0.1,0,0.1,0l2.7,7.4c0.1,0.2,0.2,0.3,0.3,0.3
			l0.6,0.2c0,0,0,0,0,0.1v0.4c0,0,0,0.1-0.1,0.1h-2.7c0,0-0.1,0-0.1-0.1v-0.4c0,0,0-0.1,0-0.1l0.7-0.2c0,0,0.1,0,0-0.1L273.5,130.4z
			 M270.8,129.6h2.4l-1.1-3.2c0,0,0-0.1-0.1-0.1c-0.1,0-0.1,0-0.1,0.1L270.8,129.6z"/>
		<path class="st0" d="M281,129.4c0.6,0.9,1.1,1.6,1.6,2c0.4,0.5,0.8,0.7,1,0.9c0.2,0.1,0.3,0.1,0.5,0.2c0,0,0,0,0,0v0.4
			c0,0,0,0,0,0.1c0,0,0,0.1-0.1,0.1c-0.2,0.1-0.5,0.2-0.7,0.2c-0.3,0-0.7-0.2-1-0.5c-0.4-0.3-0.8-0.9-1.2-1.6l-1-1.6h-1v2.8
			c0,0,0,0.1,0,0.1l0.9,0.2c0,0,0,0,0,0.1v0.4c0,0.1,0,0.1-0.1,0.1h-2.8c0,0-0.1,0-0.1-0.1v-0.3c0,0,0-0.1,0-0.1l0.6-0.1
			c0.2,0,0.2-0.1,0.2-0.3v-6.5c0,0,0-0.1-0.1-0.1l-0.8-0.2c0,0,0,0,0-0.1V125c0-0.1,0-0.1,0.1-0.1h3.1c0.8,0,1.5,0.2,2,0.6
			c0.5,0.4,0.8,0.9,0.8,1.6c0,0.7-0.3,1.2-0.6,1.6C282,129.1,281.5,129.3,281,129.4z M279.1,129h0.9c0.7,0,1.2-0.2,1.5-0.5
			c0.3-0.3,0.4-0.8,0.4-1.3c0-0.9-0.5-1.6-1.8-1.6c-0.4,0-0.7,0-1,0.1V129z"/>
		<path class="st0" d="M290.1,130.4h-2.9l-0.7,2.1c0,0,0,0.1,0,0.1l0.6,0.2c0,0,0.1,0,0.1,0.1v0.3c0,0.1,0,0.1-0.1,0.1h-2.3
			c0,0-0.1,0-0.1-0.1v-0.3c0,0,0-0.1,0-0.1c0.1,0,0.2-0.1,0.3-0.1c0.2,0,0.4-0.1,0.5-0.2c0,0,0.1-0.1,0.1-0.1l2.6-6.9
			c0-0.1,0.1-0.2,0.2-0.2c0.2-0.1,0.4-0.2,0.5-0.3c0.1-0.1,0.2-0.1,0.2-0.1c0,0,0.1,0,0.1,0l2.7,7.4c0.1,0.2,0.2,0.3,0.3,0.3
			l0.6,0.2c0,0,0,0,0,0.1v0.4c0,0,0,0.1-0.1,0.1h-2.7c0,0-0.1,0-0.1-0.1v-0.4c0,0,0-0.1,0-0.1l0.7-0.2c0,0,0.1,0,0-0.1L290.1,130.4z
			 M287.5,129.6h2.4l-1.1-3.2c0,0,0-0.1-0.1-0.1c-0.1,0-0.1,0-0.1,0.1L287.5,129.6z"/>
		<path class="st0" d="M296.5,125.4c-0.9,0-1.5,0.4-1.5,1.3c0,0.5,0.3,0.9,0.7,1.1c0.2,0.1,0.3,0.2,0.6,0.3c0.4,0.2,0.9,0.5,1.4,0.7
			c0.5,0.2,1.1,0.5,1.4,1.2c0.1,0.3,0.2,0.6,0.2,1c0,0.7-0.3,1.4-0.8,1.8c-0.5,0.4-1.2,0.7-1.9,0.7c-0.8,0-1.8-0.2-2.7-0.6
			c-0.1,0-0.1-0.1-0.1-0.1l0.5-1.5c0-0.1,0.1-0.1,0.1-0.1l0.2,0c0.1,0,0.1,0,0.1,0.1c0,0.2,0.1,0.6,0.4,1c0.2,0.3,0.7,0.6,1.4,0.6
			c1.1,0,1.8-0.6,1.8-1.5c0-0.5-0.3-0.9-0.7-1.1c-0.3-0.2-0.8-0.4-1.3-0.7c-0.5-0.2-1-0.5-1.3-0.7c-0.4-0.2-0.6-0.5-0.8-0.8
			c-0.2-0.3-0.2-0.6-0.2-0.9c0-0.7,0.3-1.3,0.8-1.7c0.5-0.4,1.1-0.6,1.8-0.6c0.7,0,1.5,0.2,2.2,0.5c0.1,0,0.1,0.1,0.1,0.1l-0.4,1.3
			c0,0.1,0,0.1-0.1,0.1l-0.2,0c0,0-0.1,0-0.1-0.1c0-0.3-0.1-0.6-0.4-0.8C297.4,125.5,297,125.4,296.5,125.4z"/>
		<path class="st0" d="M302,132.4C302,132.4,302,132.4,302,132.4l0.9,0.3c0,0,0.1,0,0.1,0.1v0.4c0,0.1,0,0.1-0.1,0.1h-2.8
			c0,0-0.1,0-0.1-0.1v-0.4c0,0,0-0.1,0-0.1l0.6-0.1c0.2,0,0.2-0.2,0.2-0.3v-6.5c0,0,0-0.1,0-0.1l-0.9-0.2c0,0-0.1,0-0.1-0.1V125
			c0-0.1,0-0.1,0.1-0.1h2.8c0,0,0.1,0,0.1,0.1v0.4c0,0,0,0.1,0,0.1l-0.6,0.1c-0.2,0-0.2,0.2-0.2,0.3V132.4z"/>
		<path class="st0" d="M309.5,125.4c-0.9,0-1.5,0.4-1.5,1.3c0,0.5,0.3,0.9,0.7,1.1c0.2,0.1,0.3,0.2,0.6,0.3c0.4,0.2,0.9,0.5,1.4,0.7
			c0.5,0.2,1.1,0.5,1.4,1.2c0.1,0.3,0.2,0.6,0.2,1c0,0.7-0.3,1.4-0.8,1.8c-0.5,0.4-1.2,0.7-1.9,0.7c-0.8,0-1.8-0.2-2.7-0.6
			c-0.1,0-0.1-0.1-0.1-0.1l0.5-1.5c0-0.1,0.1-0.1,0.1-0.1l0.2,0c0.1,0,0.1,0,0.1,0.1c0,0.2,0.1,0.6,0.4,1c0.2,0.3,0.7,0.6,1.4,0.6
			c1.1,0,1.8-0.6,1.8-1.5c0-0.5-0.3-0.9-0.7-1.1c-0.3-0.2-0.8-0.4-1.3-0.7c-0.5-0.2-1-0.5-1.3-0.7c-0.4-0.2-0.6-0.5-0.8-0.8
			c-0.2-0.3-0.2-0.6-0.2-0.9c0-0.7,0.3-1.3,0.8-1.7c0.5-0.4,1.1-0.6,1.8-0.6c0.7,0,1.5,0.2,2.2,0.5c0.1,0,0.1,0.1,0.1,0.1l-0.4,1.3
			c0,0.1,0,0.1-0.1,0.1l-0.2,0c0,0-0.1,0-0.1-0.1c0-0.3-0.1-0.6-0.4-0.8C310.4,125.5,310,125.4,309.5,125.4z"/>
		<path class="st0" d="M318.1,130.4h-2.9l-0.7,2.1c0,0,0,0.1,0,0.1l0.6,0.2c0,0,0.1,0,0.1,0.1v0.3c0,0.1,0,0.1-0.1,0.1h-2.3
			c0,0-0.1,0-0.1-0.1v-0.3c0,0,0-0.1,0-0.1c0.1,0,0.2-0.1,0.3-0.1c0.2,0,0.4-0.1,0.5-0.2c0,0,0.1-0.1,0.1-0.1l2.6-6.9
			c0-0.1,0.1-0.2,0.2-0.2c0.2-0.1,0.4-0.2,0.5-0.3c0.1-0.1,0.2-0.1,0.2-0.1c0,0,0.1,0,0.1,0l2.7,7.4c0.1,0.2,0.2,0.3,0.3,0.3
			l0.6,0.2c0,0,0,0,0,0.1v0.4c0,0,0,0.1-0.1,0.1h-2.7c0,0-0.1,0-0.1-0.1v-0.4c0,0,0-0.1,0-0.1l0.7-0.2c0,0,0.1,0,0-0.1L318.1,130.4z
			 M315.5,129.6h2.4l-1.1-3.2c0,0,0-0.1-0.1-0.1c-0.1,0-0.1,0-0.1,0.1L315.5,129.6z"/>
		<path class="st0" d="M327.5,127c0,0.1-0.1,0.1-0.2,0.1l-0.2,0c-0.1,0-0.1-0.1-0.1-0.3c-0.1-0.8-0.8-1.2-1.9-1.2
			c-0.9,0-1.6,0.4-2.1,1c-0.5,0.6-0.8,1.5-0.8,2.5c0,1.3,0.5,2.2,1.1,2.8c0.6,0.6,1.4,0.8,2.1,0.8c0.6,0,1.1-0.1,1.3-0.2
			c0.2-0.1,0.3-0.3,0.4-0.5l0.1-1.6c0,0,0-0.1,0-0.1l-1.5-0.2c0,0-0.1,0-0.1-0.1v-0.3c0-0.1,0-0.1,0.1-0.1h2.6c0,0,0.1,0,0.1,0.1
			l-0.1,2.4c0,0.6-0.2,0.7-0.6,0.9c-0.4,0.2-1.3,0.4-2.3,0.4c-1.1,0-2.2-0.4-2.9-1.1c-0.7-0.7-1.2-1.7-1.2-3c0-1.3,0.5-2.4,1.3-3.2
			c0.8-0.8,1.8-1.3,3-1.3c1.1,0,2.1,0.3,2.6,0.7c0.1,0,0.1,0.1,0,0.2L327.5,127z M326.6,122.9C326.6,123,326.6,123,326.6,122.9
			l0,0.1c-0.3,0.7-0.9,1.3-1.7,1.2c-0.6-0.1-1.1-0.5-1.3-1c0-0.1,0-0.1,0-0.1l0.7-0.4c0,0,0.1,0,0.1,0c0.1,0.1,0.2,0.3,0.4,0.4
			c0.2,0.1,0.4,0.2,0.7,0.2c0.3,0,0.6-0.1,0.9-0.5l0.1-0.1c0,0,0,0,0.1,0L326.6,122.9z"/>
		<path class="st0" d="M331.1,131.6c0,0.6,0,1,0.4,1c0,0,0.1,0,0.3,0h0.4c0.3,0,0.7,0,0.9,0c0.4,0,0.7-0.1,0.9-0.2
			c0.2-0.1,0.3-0.4,0.5-0.7c0,0,0,0,0.1,0l0.5,0c0,0,0.1,0,0,0.1l-0.3,1.5c0,0.1,0,0.2-0.1,0.2h-5.8c0,0,0,0,0,0v-0.4
			c0,0,0-0.1,0-0.1l0.6-0.1c0.2,0,0.2-0.2,0.2-0.3v-6.5c0,0,0-0.1,0-0.1l-0.9-0.2c0,0-0.1,0-0.1-0.1V125c0-0.1,0-0.1,0.1-0.1h2.8
			c0,0,0.1,0,0.1,0.1v0.3c0,0,0,0.1,0,0.1l-0.6,0.1c-0.2,0-0.2,0.2-0.2,0.3V131.6z"/>
		<path class="st0" d="M338,132.4C338,132.4,338,132.4,338,132.4l0.9,0.3c0,0,0.1,0,0.1,0.1v0.4c0,0.1,0,0.1-0.1,0.1H336
			c0,0-0.1,0-0.1-0.1v-0.4c0,0,0-0.1,0-0.1l0.6-0.1c0.2,0,0.2-0.2,0.2-0.3v-6.5c0,0,0-0.1,0-0.1l-0.9-0.2c0,0-0.1,0-0.1-0.1V125
			c0-0.1,0-0.1,0.1-0.1h2.8c0,0,0.1,0,0.1,0.1v0.4c0,0,0,0.1,0,0.1l-0.6,0.1c-0.2,0-0.2,0.2-0.2,0.3V132.4z"/>
		<path class="st0" d="M341.9,128.7l0.6-0.3l2.4-2.7c0-0.1,0-0.1,0-0.1l-0.5-0.2c0,0,0,0,0-0.1V125c0-0.1,0-0.1,0.1-0.1h2.5
			c0,0,0,0,0,0v0.4c0,0,0,0.1,0,0.1l-0.4,0.1c-0.2,0-0.4,0.1-0.5,0.2c-0.1,0.1-0.3,0.2-0.5,0.4c-0.3,0.3-0.6,0.6-0.9,0.9
			c-0.3,0.4-0.8,0.9-1.4,1.6l1.6,1.9c0.2,0.3,0.6,0.6,0.9,1c0.3,0.3,0.6,0.6,0.8,0.7c0.1,0.1,0.3,0.1,0.4,0.2c0.1,0,0.1,0,0.2,0.1
			c0,0,0,0,0,0v0.4c0,0.2-0.2,0.3-0.5,0.3c-0.1,0-0.2,0-0.3,0c-0.3,0-0.7-0.2-1-0.5c-0.4-0.3-0.8-0.9-1.3-1.6l-1.5-2h-0.6v3.2
			c0,0,0,0.1,0,0.1l0.9,0.2c0,0,0.1,0,0.1,0.1v0.3c0,0.1,0,0.1-0.1,0.1H340c0,0-0.1,0-0.1-0.1v-0.3c0,0,0-0.1,0-0.1l0.6-0.1
			c0.2,0,0.2-0.2,0.2-0.3v-6.6c0,0,0-0.1,0-0.1l-0.9-0.2c0,0-0.1,0-0.1-0.1V125c0-0.1,0-0.1,0.1-0.1h2.8c0,0,0.1,0,0.1,0.1v0.3
			c0,0,0,0.1,0,0.1l-0.6,0.1c-0.2,0-0.2,0.2-0.2,0.3V128.7z"/>
		<path class="st0" d="M356.8,129.3h-4.2v3.1c0,0,0,0.1,0,0.1l0.9,0.2c0,0,0.1,0,0.1,0.1v0.3c0,0.1,0,0.1-0.1,0.1h-2.9
			c0,0-0.1,0-0.1-0.1v-0.3c0,0,0-0.1,0.1-0.1l0.6-0.1c0.2,0,0.2-0.2,0.2-0.3v-6.6c0,0,0-0.1-0.1-0.1l-0.9-0.2c0,0-0.1,0-0.1-0.1V125
			c0-0.1,0-0.1,0.1-0.1h2.9c0,0,0.1,0,0.1,0.1v0.3c0,0,0,0.1,0,0.1l-0.7,0.1c-0.2,0-0.2,0.2-0.2,0.3v2.7h4.2v-2.7
			c0-0.1,0-0.1-0.1-0.1l-0.9-0.2c0,0-0.1,0-0.1-0.1V125c0-0.1,0-0.1,0.1-0.1h2.9c0,0,0.1,0,0.1,0.1v0.3c0,0,0,0.1,0,0.1l-0.6,0.1
			c-0.2,0-0.2,0.2-0.2,0.3v6.6c0,0,0,0.1,0,0.1l0.9,0.2c0,0,0.1,0,0.1,0.1v0.3c0,0.1,0,0.1-0.1,0.1h-2.9c0,0-0.1,0-0.1-0.1v-0.3
			c0,0,0-0.1,0-0.1l0.7-0.1c0.2,0,0.2-0.2,0.2-0.3V129.3z"/>
		<path class="st0" d="M361.8,132.4C361.8,132.4,361.8,132.4,361.8,132.4l0.9,0.3c0,0,0.1,0,0.1,0.1v0.4c0,0.1,0,0.1-0.1,0.1h-2.8
			c0,0-0.1,0-0.1-0.1v-0.4c0,0,0-0.1,0-0.1l0.6-0.1c0.2,0,0.2-0.2,0.2-0.3v-6.5c0,0,0-0.1,0-0.1l-0.9-0.2c0,0-0.1,0-0.1-0.1V125
			c0-0.1,0-0.1,0.1-0.1h2.8c0,0,0.1,0,0.1,0.1v0.4c0,0,0,0.1,0,0.1l-0.6,0.1c-0.2,0-0.2,0.2-0.2,0.3V132.4z M361.4,124.2
			c0,0-0.1,0.1-0.1,0.1c0,0-0.1,0-0.1-0.1l-0.6-0.6c0,0-0.1-0.1-0.1-0.1c0,0,0-0.1,0-0.1l0.6-0.6c0,0,0.1-0.1,0.1-0.1
			c0,0,0.1,0,0.1,0.1l0.6,0.6c0,0,0.1,0.1,0.1,0.1c0,0,0,0.1-0.1,0.1L361.4,124.2z"/>
		<path class="st0" d="M367.8,132.5c0.6,0,1-0.1,1.3-0.3c0.3-0.2,0.4-0.5,0.6-1c0,0,0,0,0.1,0l0.4,0c0,0,0.1,0,0.1,0.1
			c0,0.2-0.1,0.5-0.1,0.8c-0.1,0.3-0.1,0.7-0.2,0.9c0,0.1-0.1,0.2-0.2,0.2h-5.8c0,0-0.1,0-0.1,0l-0.1-0.1l0-0.1c0,0,0-0.1,0-0.1
			c1.7-2.5,3.3-4.9,4.8-7.2c0-0.1,0-0.1,0-0.1l-2.6,0.1c-0.6,0-0.8,0.4-1.1,1.1c0,0,0,0.1-0.1,0.1l-0.3,0c0,0-0.1,0-0.1-0.1
			l-0.1-1.3c0-0.1,0-0.2,0-0.3c0-0.1,0-0.1,0.1-0.1h5.4c0.1,0,0.1,0,0.1,0.1l0,0.1c0,0.1,0,0.1,0,0.2c0,0,0,0.1,0,0.1
			c-1.6,2.3-3.2,4.8-4.7,7.1c0,0.1,0,0.1,0,0.1L367.8,132.5z"/>
		<path class="st0" d="M376.5,132.9C376.4,133,376.4,133,376.5,132.9l-0.4,0.3c-0.1,0-0.1,0.1-0.1,0.1c0,0-0.1,0-0.1-0.1l-2.9-6.4
			c0,0,0,0,0,0v5.6c0,0,0,0.1,0.1,0.1l0.8,0.2c0,0,0.1,0,0.1,0.1v0.4c0,0.1,0,0.1-0.1,0.1h-2.5c0,0-0.1,0-0.1-0.1v-0.3
			c0,0,0-0.1,0-0.1l0.6-0.1c0.2,0,0.2-0.2,0.2-0.3v-6.5c0,0,0-0.1,0-0.1l-0.9-0.2c0,0-0.1,0-0.1-0.1V125c0-0.1,0-0.1,0.1-0.1h1.6
			c0.2,0,0.5,0,0.6,0.3l2.9,6.3c0,0,0,0,0.1,0s0.1,0,0.1,0l2.6-6.2c0.1-0.3,0.3-0.4,0.6-0.4h1.7c0,0,0.1,0,0.1,0.1v0.4
			c0,0,0,0.1-0.1,0.1l-0.9,0.2c0,0,0,0,0,0.1v6.5c0,0.1,0,0.1,0,0.1l0.9,0.2c0,0,0.1,0,0.1,0.1v0.4c0,0.1,0,0.1-0.1,0.1h-2.8
			c0,0-0.1,0-0.1-0.1v-0.4c0,0,0-0.1,0-0.1l0.6-0.1c0.2,0,0.2-0.2,0.2-0.3v-5.4c0,0,0,0,0,0L376.5,132.9z"/>
		<path class="st0" d="M388.1,124.9C388.2,124.9,388.2,125,388.1,124.9c0.1,0.1,0.1,0.2,0,0.3c-0.1,0.4-0.2,0.9-0.3,1.3
			c0,0,0,0.1-0.1,0.1l-0.4,0c-0.1,0-0.1,0-0.1-0.1c-0.2-0.7-0.4-1-1.2-1l-1.8,0v3h2.8l0,0.3c0,0.3-0.3,0.4-0.6,0.4h-2.2v2.3
			c0,0.6,0,1,0.4,1h0.3c0.1,0,0.3,0,0.4,0c0.2,0,0.3,0,0.5,0c0.3,0,0.7,0,1-0.1c0.3-0.1,0.4-0.2,0.6-0.4l0.2-0.4c0,0,0,0,0.1,0
			l0.5,0c0,0,0,0,0,0.1c0,0.3-0.1,0.5-0.1,0.7l-0.2,0.8c0,0.1-0.1,0.1-0.1,0.1h-5.7c0,0,0,0,0,0v-0.4c0,0,0-0.1,0-0.1l0.6-0.1
			c0.2,0,0.2-0.2,0.2-0.3v-6.5c0-0.1,0-0.1-0.1-0.1l-0.8-0.2c0,0,0,0,0-0.1V125c0,0,0,0,0,0H388.1z"/>
		<path class="st0" d="M393.1,125.5C393,125.5,393,125.5,393.1,125.5l0,6.9c0,0.1,0,0.1,0.1,0.1l0.9,0.2c0,0,0.1,0,0.1,0.1v0.4
			c0,0.1,0,0.1-0.1,0.1h-2.8c0,0-0.1,0-0.1-0.1v-0.4c0,0,0-0.1,0-0.1l0.6-0.1c0.2,0,0.2-0.2,0.2-0.3v-6.7c0,0,0,0,0,0l-1.3,0.1
			c-0.7,0-1.1,0.2-1.2,0.9c0,0.1,0,0.1-0.1,0.1h-0.3c-0.1,0-0.1,0-0.1-0.1l0.1-1.5c0-0.1,0.1-0.2,0.3-0.1c1.1,0.1,2.1,0.1,3.2,0.1
			c0.5,0,1,0,1.5,0c0.5,0,1,0,1.5-0.1c0.1,0,0.3,0,0.3,0.1l0.1,1.5c0,0.1,0,0.1-0.1,0.1h-0.3c0,0-0.1,0-0.1-0.1
			c-0.1-0.2-0.1-0.4-0.3-0.6c-0.1-0.2-0.3-0.3-0.6-0.3L393.1,125.5z"/>
		<path class="st0" d="M398.8,131.6c0,0.6,0,1,0.4,1c0,0,0.1,0,0.3,0h0.4c0.3,0,0.7,0,0.9,0c0.4,0,0.7-0.1,0.9-0.2
			c0.2-0.1,0.3-0.4,0.5-0.7c0,0,0,0,0.1,0l0.5,0c0,0,0.1,0,0,0.1l-0.3,1.5c0,0.1,0,0.2-0.1,0.2h-5.8c0,0,0,0,0,0v-0.4
			c0,0,0-0.1,0-0.1l0.6-0.1c0.2,0,0.2-0.2,0.2-0.3v-6.5c0,0,0-0.1,0-0.1l-0.9-0.2c0,0-0.1,0-0.1-0.1V125c0-0.1,0-0.1,0.1-0.1h2.8
			c0,0,0.1,0,0.1,0.1v0.3c0,0,0,0.1,0,0.1l-0.6,0.1c-0.2,0-0.2,0.2-0.2,0.3V131.6z"/>
		<path class="st0" d="M409.5,124.9C409.6,124.9,409.6,125,409.5,124.9c0.1,0.1,0.1,0.2,0,0.3c-0.1,0.4-0.2,0.9-0.3,1.3
			c0,0,0,0.1-0.1,0.1l-0.4,0c-0.1,0-0.1,0-0.1-0.1c-0.2-0.7-0.4-1-1.2-1l-1.8,0v3h2.8l0,0.3c0,0.3-0.3,0.4-0.6,0.4h-2.2v2.3
			c0,0.6,0,1,0.4,1h0.3c0.1,0,0.3,0,0.4,0c0.2,0,0.3,0,0.5,0c0.3,0,0.7,0,1-0.1c0.3-0.1,0.4-0.2,0.6-0.4l0.2-0.4c0,0,0,0,0.1,0
			l0.5,0c0,0,0,0,0,0.1c0,0.3-0.1,0.5-0.1,0.7l-0.2,0.8c0,0.1-0.1,0.1-0.1,0.1h-5.7c0,0,0,0,0,0v-0.4c0,0,0-0.1,0-0.1l0.6-0.1
			c0.2,0,0.2-0.2,0.2-0.3v-6.5c0-0.1,0-0.1-0.1-0.1l-0.8-0.2c0,0,0,0,0-0.1V125c0,0,0,0,0,0H409.5z"/>
		<path class="st0" d="M414.5,129.4c0.6,0.9,1.1,1.6,1.6,2c0.4,0.5,0.8,0.7,1,0.9c0.2,0.1,0.3,0.1,0.5,0.2c0,0,0,0,0,0v0.4
			c0,0,0,0,0,0.1c0,0,0,0.1-0.1,0.1c-0.2,0.1-0.5,0.2-0.7,0.2c-0.3,0-0.7-0.2-1-0.5c-0.4-0.3-0.8-0.9-1.2-1.6l-1-1.6h-1v2.8
			c0,0,0,0.1,0,0.1l0.9,0.2c0,0,0,0,0,0.1v0.4c0,0.1,0,0.1-0.1,0.1h-2.8c0,0-0.1,0-0.1-0.1v-0.3c0,0,0-0.1,0-0.1l0.6-0.1
			c0.2,0,0.2-0.1,0.2-0.3v-6.5c0,0,0-0.1-0.1-0.1l-0.8-0.2c0,0,0,0,0-0.1V125c0-0.1,0-0.1,0.1-0.1h3.1c0.8,0,1.5,0.2,2,0.6
			c0.5,0.4,0.8,0.9,0.8,1.6c0,0.7-0.3,1.2-0.6,1.6C415.4,129.1,415,129.3,414.5,129.4z M412.6,129h0.9c0.7,0,1.2-0.2,1.5-0.5
			c0.3-0.3,0.4-0.8,0.4-1.3c0-0.9-0.5-1.6-1.8-1.6c-0.4,0-0.7,0-1,0.1V129z"/>
		<path class="st0" d="M420.4,132.4C420.4,132.4,420.4,132.4,420.4,132.4l0.9,0.3c0,0,0.1,0,0.1,0.1v0.4c0,0.1,0,0.1-0.1,0.1h-2.8
			c0,0-0.1,0-0.1-0.1v-0.4c0,0,0-0.1,0-0.1l0.6-0.1c0.2,0,0.2-0.2,0.2-0.3v-6.5c0,0,0-0.1,0-0.1l-0.9-0.2c0,0-0.1,0-0.1-0.1V125
			c0-0.1,0-0.1,0.1-0.1h2.8c0,0,0.1,0,0.1,0.1v0.4c0,0,0,0.1,0,0.1l-0.6,0.1c-0.2,0-0.2,0.2-0.2,0.3V132.4z M420,124.2
			c0,0-0.1,0.1-0.1,0.1c0,0-0.1,0-0.1-0.1l-0.6-0.6c0,0-0.1-0.1-0.1-0.1c0,0,0-0.1,0-0.1l0.6-0.6c0,0,0.1-0.1,0.1-0.1
			c0,0,0.1,0,0.1,0.1l0.6,0.6c0,0,0.1,0.1,0.1,0.1c0,0,0,0.1-0.1,0.1L420,124.2z"/>
		<path class="st0" d="M430.2,130.4h-2.9l-0.7,2.1c0,0,0,0.1,0,0.1l0.6,0.2c0,0,0.1,0,0.1,0.1v0.3c0,0.1,0,0.1-0.1,0.1h-2.3
			c0,0-0.1,0-0.1-0.1v-0.3c0,0,0-0.1,0-0.1c0.1,0,0.2-0.1,0.3-0.1c0.2,0,0.4-0.1,0.5-0.2c0,0,0.1-0.1,0.1-0.1l2.6-6.9
			c0-0.1,0.1-0.2,0.2-0.2c0.2-0.1,0.4-0.2,0.5-0.3c0.1-0.1,0.2-0.1,0.2-0.1c0,0,0.1,0,0.1,0l2.7,7.4c0.1,0.2,0.2,0.3,0.3,0.3
			l0.6,0.2c0,0,0,0,0,0.1v0.4c0,0,0,0.1-0.1,0.1h-2.7c0,0-0.1,0-0.1-0.1v-0.4c0,0,0-0.1,0-0.1l0.7-0.2c0,0,0.1,0,0-0.1L430.2,130.4z
			 M427.6,129.6h2.4l-1.1-3.2c0,0,0-0.1-0.1-0.1c-0.1,0-0.1,0-0.1,0.1L427.6,129.6z"/>
		<path class="st0" d="M434.8,133.4c0,0-0.1,0.1-0.1,0.1c0,0-0.1,0-0.1-0.1l-0.6-0.6c0,0-0.1-0.1-0.1-0.1c0,0,0-0.1,0.1-0.1l0.6-0.6
			c0,0,0.1-0.1,0.1-0.1c0,0,0.1,0,0.1,0.1l0.6,0.6c0,0,0.1,0.1,0.1,0.1c0,0,0,0,0,0l-0.1,0.1c0,0-0.1,0.1-0.2,0.2
			C435.1,133.1,435,133.2,434.8,133.4z"/>
		<path class="st0" d="M441.9,131c0,0.7-0.3,1.4-0.8,1.8c-0.4,0.3-0.9,0.6-1.5,0.6l-0.1,0.4c0,0,0,0,0,0c0,0,0.1,0,0.1,0
			c0.4,0.1,0.8,0.3,1,0.6c0.1,0.3,0.1,0.6,0,0.9s-0.4,0.5-0.7,0.6c-0.1,0-0.3,0.1-0.5,0.1c-0.2,0-0.5,0.1-0.6,0.1c0,0,0,0-0.1,0
			l-0.1-0.3c0,0,0-0.1,0-0.1c0,0,0.1,0,0.2,0c0.2,0,0.5-0.2,0.8-0.3c0.1-0.1,0.2-0.2,0.2-0.3s-0.1-0.3-0.2-0.4
			c-0.1-0.1-0.4-0.2-0.7-0.3c0,0,0,0-0.1,0c0,0-0.1,0-0.1,0l0-0.1c0,0,0,0,0-0.1c0,0,0,0,0-0.1l0.3-0.7c-0.7,0-1.6-0.3-2.5-0.6
			c-0.1,0-0.1-0.1-0.1-0.1l0.5-1.5c0-0.1,0.1-0.1,0.1-0.1l0.2,0c0.1,0,0.1,0,0.1,0.1c0,0.2,0.1,0.6,0.4,1c0.2,0.3,0.7,0.6,1.4,0.6
			c1.1,0,1.8-0.6,1.8-1.5c0-0.5-0.3-0.9-0.7-1.1c-0.3-0.2-0.8-0.4-1.3-0.7c-0.5-0.2-1-0.5-1.3-0.7c-0.4-0.2-0.6-0.5-0.8-0.8
			c-0.2-0.3-0.2-0.6-0.2-0.9c0-0.7,0.3-1.3,0.8-1.7c0.5-0.4,1.1-0.6,1.8-0.6c0.7,0,1.5,0.2,2.2,0.5c0.1,0,0.1,0.1,0.1,0.1l-0.4,1.3
			c0,0.1,0,0.1-0.1,0.1l-0.2,0c0,0-0.1,0-0.1-0.1c0-0.3-0.1-0.6-0.4-0.8c-0.2-0.2-0.6-0.4-1.1-0.4c-0.9,0-1.5,0.4-1.5,1.3
			c0,0.5,0.3,0.9,0.7,1.1c0.2,0.1,0.3,0.2,0.6,0.3c0.4,0.2,0.9,0.5,1.4,0.7c0.5,0.2,1.1,0.5,1.4,1.2
			C441.8,130.4,441.9,130.7,441.9,131z"/>
		<path class="st0" d="M443.6,133.4c0,0-0.1,0.1-0.1,0.1c0,0-0.1,0-0.1-0.1l-0.6-0.6c0,0-0.1-0.1-0.1-0.1c0,0,0-0.1,0.1-0.1l0.6-0.6
			c0,0,0.1-0.1,0.1-0.1c0,0,0.1,0,0.1,0.1l0.6,0.6c0,0,0.1,0.1,0.1,0.1c0,0,0,0,0,0l-0.1,0.1c0,0-0.1,0.1-0.2,0.2
			C443.9,133.1,443.8,133.2,443.6,133.4z"/>
	</g>
	<g>
		<g>
			<g>
				<path class="st1" d="M133.1,62.5C153,45.7,108.2-10.7,51.1,8C81.9-1.8,123.5,33.8,133.1,62.5z"/>
				<path class="st1" d="M99.6,47.8c-11.5-9.6-27.4-22.7-44.3-27.4C25,12.2,9.1,39.5,4.5,61.1c5.4-20.6,31-55.6,79.3,12.8
					c8.4,11.8,11.1,15.6,15.9,13.5c10-4.6,26-17.5,33.4-24.8C126.8,67.6,121.9,66.4,99.6,47.8z"/>
			</g>
			<g>
				<path class="st1" d="M15,87.8c-20,16.8,24.8,73.2,81.9,54.5C66.2,152,24.6,116.5,15,87.8z"/>
				<path class="st1" d="M48.4,102.4c11.5,9.6,27.4,22.7,44.3,27.4c30.3,8.3,46.2-19.1,50.7-40.6c-5.4,20.6-31,55.6-79.3-12.8
					C55.8,64.6,53.2,60.8,48.3,63c-10,4.6-26,17.5-33.4,24.8C21.2,82.6,26.1,83.9,48.4,102.4z"/>
			</g>
		</g>
		<g>
			<path class="st0" d="M213.8,49.9c0-0.3-0.1-0.4-0.4-0.5l-5.2-1.3c-0.3-0.1-0.5-0.3-0.5-0.6v-1.9c0-0.4,0.2-0.5,0.5-0.5h16.3
				c0.3,0,0.5,0.2,0.5,0.5v2.1c0,0.3-0.1,0.5-0.4,0.5l-4.1,0.8c-0.4,0.1-0.5,0.4-0.5,0.7v26.5c0,8-1.2,15.6-4.7,21
				c-3.5,5.5-9.6,9-19,9c-8.3,0-13.8-3.4-16.8-6.7c-4.6-5-6.3-11.6-6.3-21.8V51.1c0-0.4-0.1-0.5-0.4-0.6l-6.1-1.4
				c-0.3-0.1-0.5-0.3-0.5-0.6v-2.7c0-0.5,0.2-0.6,0.5-0.6h20.3c0.3,0,0.5,0.2,0.5,0.5v2.5c0,0.4-0.1,0.5-0.4,0.6l-5.1,1
				c-0.6,0.2-1,0.5-1,1.1v25.7c0,6.5,0.4,12.4,3.5,17.2c2.4,3.9,7.3,6.6,13.8,6.6c6.2,0,10.2-2.6,12.4-7c2.2-4.3,2.9-10.5,2.9-17.4
				V49.9z"/>
			<path class="st0" d="M249.1,48.2c-6.8,0-11.2,2.9-11.2,9.7c0,3.9,2.1,6.3,5,8c1.2,0.6,2.5,1.4,4.2,2.2c3.2,1.6,6.8,3.4,10.2,5.2
				c3.3,1.8,7.8,3.8,9.9,8.6c1,2.4,1.5,4.7,1.5,6.9c0,5.4-2.3,9.8-5.8,12.9c-3.6,3.1-8.6,4.8-14,4.8c-5.7,0-12.8-1.7-19.6-4.5
				c-0.5-0.2-0.6-0.5-0.5-1l3.8-10.7c0.2-0.5,0.5-0.6,0.8-0.6l1.8,0.3c0.6,0.1,1,0.4,1.1,0.8c0.3,1.7,0.9,4.5,2.7,6.9
				c1.8,2.4,4.8,4.4,9.8,4.4c8,0,12.9-4.6,12.9-10.7c0-3.7-2.1-6.5-5-8.2c-2.4-1.4-5.7-3.1-9.2-4.9c-3.5-1.7-7-3.5-9.6-5
				c-2.6-1.5-4.4-3.7-5.5-5.9c-1.2-2.2-1.6-4.7-1.6-6.8c0-5,2.3-9.1,5.7-12c3.4-2.9,8-4.5,12.7-4.5c5.4,0,10.7,1.3,15.7,3.4
				c0.5,0.2,0.5,0.5,0.5,0.9l-3.2,9.1c-0.1,0.5-0.4,0.6-0.6,0.6l-1.7-0.3c-0.4,0-0.5-0.2-0.6-0.6c-0.4-1.9-1.1-4.2-2.6-5.9
				C255.2,49.5,252.7,48.2,249.1,48.2z"/>
			<path class="st0" d="M321.1,76.5h-30.5v22.8c0,0.4,0.1,0.5,0.4,0.6l6.7,1.4c0.3,0.1,0.5,0.3,0.5,0.6v2.4c0,0.5-0.2,0.6-0.5,0.6
				h-20.8c-0.3,0-0.5-0.2-0.5-0.5v-2.3c0-0.3,0.2-0.5,0.5-0.6l4.5-0.9c1.2-0.3,1.5-1.2,1.5-2.2V50.9c0-0.3-0.2-0.5-0.5-0.6l-6.4-1.4
				c-0.3-0.1-0.5-0.3-0.5-0.6v-2.4c0-0.5,0.2-0.6,0.5-0.6h20.8c0.3,0,0.5,0.2,0.5,0.5V48c0,0.4-0.1,0.5-0.4,0.6l-4.8,0.9
				c-1.2,0.3-1.5,1.2-1.5,2.2V71h30.5V51.2c0-0.6-0.2-0.9-0.6-1l-6.5-1.4c-0.3-0.1-0.5-0.3-0.5-0.6v-2.4c0-0.5,0.2-0.6,0.5-0.6H335
				c0.3,0,0.5,0.2,0.5,0.5V48c0,0.4-0.1,0.5-0.4,0.6l-4.6,0.9c-1.2,0.3-1.5,1.2-1.5,2.2v47.7c0,0.4,0.1,0.5,0.4,0.6l6.5,1.4
				c0.3,0.1,0.5,0.3,0.5,0.6v2.4c0,0.5-0.2,0.6-0.5,0.6h-20.9c-0.3,0-0.5-0.2-0.5-0.5v-2.3c0-0.4,0.1-0.5,0.4-0.6l4.9-0.9
				c1.2-0.3,1.5-1.2,1.5-2.2V76.5z"/>
			<path class="st0" d="M380.5,84.5h-20.8l-5,15.2c-0.1,0.3-0.1,0.5,0.2,0.6l4.1,1.4c0.3,0.1,0.5,0.3,0.5,0.5v2.3
				c0,0.5-0.2,0.6-0.5,0.6h-16.9c-0.3,0-0.5-0.2-0.5-0.5v-2.3c0-0.3,0.1-0.5,0.4-0.5c0.8-0.3,1.5-0.5,2.3-0.7c1.4-0.4,3-0.9,3.6-1.6
				c0.3-0.3,0.5-0.6,0.6-1L367,48.3c0.3-0.8,0.8-1.4,1.2-1.6c1.2-1,2.7-1.8,3.7-2.3c0.8-0.5,1.4-0.6,1.8-0.6c0.3,0,0.4,0.1,0.5,0.4
				l19.2,53.3c0.5,1.4,1.3,2.2,2.4,2.4l4.6,1.3c0.3,0.1,0.4,0.3,0.4,0.6v2.7c0,0.4-0.2,0.5-0.5,0.5h-19.6c-0.3,0-0.5-0.2-0.5-0.5
				v-2.7c0-0.3,0.1-0.5,0.4-0.6l4.8-1.3c0.4-0.1,0.5-0.4,0.3-0.8L380.5,84.5z M361.4,79.2h17.2l-8.1-23.3c-0.1-0.4-0.4-0.5-0.6-0.5
				c-0.5,0-0.6,0.2-0.7,0.5L361.4,79.2z"/>
			<path class="st0" d="M426,48.2c-6.8,0-11.2,2.9-11.2,9.7c0,3.9,2.1,6.3,5,8c1.2,0.6,2.5,1.4,4.2,2.2c3.2,1.6,6.8,3.4,10.2,5.2
				c3.3,1.8,7.8,3.8,9.9,8.6c1,2.4,1.5,4.7,1.5,6.9c0,5.4-2.3,9.8-5.8,12.9c-3.6,3.1-8.6,4.8-14,4.8c-5.7,0-12.8-1.7-19.6-4.5
				c-0.5-0.2-0.6-0.5-0.5-1l3.8-10.7c0.2-0.5,0.5-0.6,0.8-0.6l1.8,0.3c0.6,0.1,1,0.4,1.1,0.8c0.3,1.7,0.9,4.5,2.7,6.9
				c1.8,2.4,4.8,4.4,9.8,4.4c8,0,12.9-4.6,12.9-10.7c0-3.7-2.1-6.5-5-8.2c-2.4-1.4-5.7-3.1-9.2-4.9c-3.5-1.7-7-3.5-9.6-5
				c-2.6-1.5-4.4-3.7-5.5-5.9c-1.2-2.2-1.6-4.7-1.6-6.8c0-5,2.3-9.1,5.7-12c3.4-2.9,8-4.5,12.7-4.5c5.4,0,10.7,1.3,15.7,3.4
				c0.4,0.2,0.5,0.5,0.4,0.9l-3.2,9.1c-0.1,0.5-0.4,0.6-0.6,0.6l-1.7-0.3c-0.4,0-0.5-0.2-0.6-0.6c-0.4-1.9-1.1-4.2-2.6-5.9
				C432.1,49.5,429.6,48.2,426,48.2z"/>
			<g>
				<path class="st0" d="M421.7,114.1c0-1.3,0.4-2.4,1.2-3.1c0.8-0.8,1.8-1.1,3-1.1c1.2,0,2.2,0.4,3.1,1.1c0.8,0.7,1.3,1.7,1.3,3.1
					c0,1.3-0.4,2.4-1.2,3.2c-0.8,0.8-1.8,1.3-3.2,1.3c-1.2,0-2.2-0.4-3-1.2C422.1,116.5,421.7,115.4,421.7,114.1z"/>
			</g>
		</g>
		<path class="st0" d="M562.5,70.2c0.5,2-1.6,3-2.5,3.1c0.6,1.2,2.8,0.6,4-0.3l0,0c0.5-0.4,1,0.1,1.5,0.4c1.5,0.9,5.9,5.2,8.5,2.9
			c-4.2-1.9-5.7-3.1-8.6-4.8c2.3-0.2,10.5,6.7,12.4,2c-6-1.3-8.8-2.6-12.2-3.6c2.7-0.8,15.7,5.2,15.7,0.1c-4.9-0.2-12-1.3-15.3-1.7
			c3.4-1.4,17,2.8,17.3-2.9C575.4,66.9,561.5,62.6,562.5,70.2 M553.9,70.2c1.1-7.7-12.9-3.4-20.8-4.9c0.3,5.7,13.9,1.5,17.3,2.9
			c-3.2,0.4-10.4,1.4-15.3,1.7c0,5.2,13-0.9,15.7-0.1c-3.4,1.1-6.2,2.3-12.2,3.6c1.9,4.7,10.1-2.2,12.4-2c-2.9,1.7-4.4,2.9-8.6,4.8
			c2.6,2.4,7-2,8.5-2.9c0.4-0.2,0.9-0.7,1.5-0.4l0,0c1.2,0.8,3.4,1.4,4,0.3C555.5,73.3,553.4,72.2,553.9,70.2 M557.6,53.7l0.6,1.8
			l0.6-1.8l1.9,0l-1.5-1.1l0.6-1.8l-1.5,1.1l-1.5-1.1l0.6,1.8l-1.5,1.1L557.6,53.7z M552.9,59.9c0,2.9,2.4,5.3,5.3,5.3
			c2.9,0,5.3-2.4,5.3-5.3c0-1.9-1-3.6-2.6-4.5c0.9,0.8,1.5,1.9,1.5,3.2c0,2.3-1.9,4.2-4.2,4.2c-2.3,0-4.2-1.9-4.2-4.2
			c0-1.3,0.6-2.4,1.5-3.2C554,56.3,552.9,58,552.9,59.9 M558.5,90.4c-1.6-0.3-2.5-0.6-2.5-0.9c0-0.3,0.2-0.3,0.7-0.6
			c0.5-0.2,0.8-0.4,0.9-0.4l-2.3-0.9c0,0-0.1,0-0.1,0.1c0,0,0,0,0,0c0,0,0,0,0,0c-0.7,0.4-1,1.1-1,1.9c0,0.8,0.6,1.4,1.7,1.7
			c0.4,0.1,0.8,0.2,1.3,0.3l1.6,0.2c0.5,0.1,0.6,0.3,0.6,0.6c0,0.1-0.2,0.3-0.4,0.4c0.1,0,0.2,0.1,0.4,0.1c0.1,0,0.2,0.1,0.3,0.1
			c0.1,0,0.2,0.1,0.3,0.2c0.1,0.1,0.2,0.1,0.2,0.1c0,0,0.1,0.1,0.2,0.2c0.7-0.5,1-1.1,0.8-1.8C561,91.1,560.1,90.7,558.5,90.4
			 M558.7,88.9l-1-0.3l0,1.3l0.9,0.2L558.7,88.9z M558.2,96.5c0.4-0.5,0.6-1-0.2-1.4C558,95.5,557.6,95.9,558.2,96.5 M557.8,94.9
			l-0.2-0.1c-0.7-0.4-1.1-0.7-1.1-0.8c-0.5,0.5-0.6,1-0.3,1.7c0.5,1.2,2,2.5,4.7,3.8C557.9,97.2,556.9,95.7,557.8,94.9 M557.8,98.1
			c-0.1,0.7,0.1,3.3,0.3,3.8c0.3-0.8,0.2-2.5,0.2-3.5L557.8,98.1z M561.4,87.8c-0.7-0.5-1.9-0.9-3.6-1.5c-1.7-0.5-2.4-0.8-2.4-1.1
			c0-0.4,0.4-0.5,1.5-0.8l0.5-0.1c-1-0.2-2-0.5-2.9-0.8c-1,0.6-1.4,1.2-1.2,1.9c0.2,0.8,0.9,1.4,2,2c1.3,0.5,2.6,1,3.7,1.3
			c1.1,0.3,1.5,0.6,1.6,0.9c0,0.2-0.5,0.5-1.4,0.7c1,0.1,1.7,0.5,2.1,1c0.8-0.4,1.2-0.9,1.2-1.6C562.4,88.8,562,88.2,561.4,87.8
			 M565.2,76.6c-0.8-1-1.7-1.4-2.6-1.5c-1,0.1-1.8,0.4-2.3,1c-0.5,0.6-0.8,1.1-0.8,1.5c0,0.4,0.8,0.4,2.6-0.1
			c0.8-0.2,1.3-0.1,1.6,0.4c0.3,0.5,0.2,1.2-0.5,1.9c-0.8,0.8-2,1.4-3.7,1.8l-0.4,0.2c1,0.2,2,0.6,3,1c0,0,0,0,0.1,0
			c1.5-0.7,2.6-1.5,3.4-2.6C566.2,78.8,566.1,77.6,565.2,76.6 M560.2,82.6l-3.3-0.9c-1.6-0.5-2.9-1.1-3.7-1.8
			c-0.7-0.7-0.8-1.4-0.5-1.9c0.3-0.5,0.9-0.6,1.6-0.4c1.8,0.5,2.6,0.5,2.6,0.1c0-0.4-0.3-0.9-0.8-1.5c-0.5-0.6-1.3-0.9-2.3-1
			c-1,0-1.9,0.5-2.6,1.5c-0.9,1.1-1,2.3-0.4,3.6c0.9,1.3,2.3,2.3,4.3,3l4.5,1.2c1,0.2,1.5,0.5,1.5,0.8c0,0.2-0.7,0.6-2.2,1.1
			c0.3,0.1,0.6,0.2,0.9,0.3c0.3,0.1,0.6,0.2,0.8,0.4c0.3,0.1,0.5,0.2,0.6,0.3c1.1-0.5,1.8-1.2,1.9-1.9
			C563.5,84.3,562.5,83.4,560.2,82.6 M558.7,84.5l-1.1-0.3l0,1.7l1,0.3L558.7,84.5z M557.4,71.6l0.2,9.7l1.2,0.4l0.2-10.1
			c0.8-0.3,1.4-1.1,1.4-2c0-1.1-0.8-2-1.8-2.1c-0.1,0-0.2,0-0.3,0c0,0,0,0,0,0c0,0,0,0,0,0c0,0-0.1,0-0.1,0c-0.1,0-0.2,0-0.3,0
			c-0.1,0-0.1,0-0.2,0.1c0,0-0.1,0-0.1,0c-0.1,0-0.2,0.1-0.3,0.1c0,0,0,0,0,0c-0.7,0.4-1.1,1.1-1.1,1.9
			C556,70.5,556.6,71.3,557.4,71.6 M558.6,92.3l-0.8-0.1c0,0.4,0.1,0.6,0.4,0.7C558.6,92.8,558.6,92.6,558.6,92.3 M555.6,91.6
			c-0.1,0.1-0.1,0.1-0.1,0.2c-0.1,0.7,0.3,1.3,1,1.8c0.2,0.2,0.9,0.6,2,1.2c0.7,0.4,0.7,1.1,0,2c0.1,0.2,0.3,0.3,0.5,0.5
			c0.7-0.5,1.1-1.1,1.4-1.7c0.5-1.1-0.1-1.9-1.8-2.5c-0.7-0.2-1.1-0.5-1.2-0.7c0-0.1,0-0.3,0.1-0.4C556.7,92,556,91.8,555.6,91.6
			 M558.2,107.5c-0.8,0-1.4,0.6-1.4,1.4c0,0.8,0.6,1.4,1.4,1.4c0.8,0,1.4-0.6,1.4-1.4C559.6,108.1,559,107.5,558.2,107.5
			 M578.3,104.7l-2.6-4l-0.9,0.6l2.6,4L578.3,104.7z M578.9,101.8l1.3-1.2l-0.6-0.6l-0.6,0.5l-0.7-0.7c0-0.1,0.2-0.2,0.4-0.4
			c0.7-0.6,1.5-0.6,2.2,0.2c0.7,0.8,0.5,1.6-0.2,2.2c-0.4,0.3-0.7,0.5-1,0.6l0.4,0.8c0.2-0.1,0.7-0.3,1.1-0.7c1.2-1,1.4-2.5,0.4-3.7
			c-0.5-0.5-1-0.8-1.6-0.9c-0.6,0-1.2,0.2-1.9,0.8c-0.5,0.4-0.8,0.9-1,1.2L578.9,101.8z M583.1,102.4c-0.3-0.4-0.8-0.5-1.3,0
			c-0.5,0.4-0.5,0.9-0.2,1.3l0.4-0.4c-0.1-0.2-0.1-0.3,0.1-0.5c0.2-0.2,0.4-0.1,0.5,0L583.1,102.4z M585.5,98.1l-3.6-3.1l-0.7,0.8
			l3.6,3.1L585.5,98.1z M584.5,91.5l-1.7,2.5l0.7,0.5l1.1-1.6l3.2,2.2l0.6-0.9L584.5,91.5z M586.7,87.3l1.3,0.6
			c0.7,0.3,1.3,0.6,1.9,0.8l0,0c-0.6,0-1.3,0-1.9,0l-2.1,0.1l-0.5,1l4.3,2l0.4-0.9l-1.3-0.6c-0.6-0.3-1.2-0.6-1.8-0.8l0,0
			c0.6,0,1.2,0,1.8,0l2-0.2l0.5-1.1l-4.3-2L586.7,87.3z M589.1,84l-1.3,0l-0.3,1.1l5-0.2l0.4-1.4l-4.2-2.6l-0.3,1.1l1.1,0.6
			L589.1,84z M590.2,83.1l0.9,0.5c0.2,0.1,0.6,0.3,0.8,0.4l0,0c-0.3,0-0.7,0-0.9,0l-1.1,0L590.2,83.1z M589.2,76.1l-0.1,1.1l1.5,0.1
			l0.5,0.5l-2.1,1l-0.1,1.3l2.9-1.4l1.9,1.7l0.1-1.3l-1.5-1.2c-0.2-0.1-0.3-0.2-0.5-0.4l0,0l2.1,0.2l0.1-1.1L589.2,76.1z
			 M590.3,73.1l-1.2,0.5l0.1,1.2l4.6-1.9l-0.1-1.4l-4.9-1.1l0.1,1.1l1.2,0.2L590.3,73.1z M591,71.8l1,0.2c0.3,0.1,0.6,0.1,0.9,0.1
			l0,0c-0.3,0.1-0.6,0.2-0.9,0.3l-1,0.4L591,71.8z M587.8,65.9c0,0.2,0.1,0.6,0.2,1.1c0.2,0.9,0.5,1.4,0.9,1.7
			c0.3,0.2,0.7,0.3,1.1,0.2c0.6-0.2,0.9-0.6,0.9-1.2l0,0c0.3,0.5,0.8,0.6,1.2,0.5c0.4-0.1,0.7-0.4,0.8-0.8c0.1-0.4,0.1-0.8-0.1-1.4
			c-0.1-0.5-0.3-1.1-0.4-1.3L587.8,65.9z M590.1,66.4l0.1,0.4c0.1,0.5,0.1,1-0.4,1.1c-0.5,0.1-0.8-0.2-0.9-0.7
			c0-0.2-0.1-0.3-0.1-0.4L590.1,66.4z M591.9,65.9c0,0.1,0.1,0.2,0.1,0.4c0.1,0.5,0,0.8-0.3,0.9c-0.3,0.1-0.6-0.1-0.8-0.7l-0.1-0.3
			L591.9,65.9z M584.9,59.3l0.5,0.9l1.4-0.7l0.6,0.1l-1.3,2l0.6,1.1l1.7-2.7l2.5,0.5l-0.6-1.2l-1.9-0.2c-0.2,0-0.4,0-0.6,0l0,0
			l1.9-1l-0.5-0.9L584.9,59.3z M587.2,54.3l-3.9,2.7l0.6,0.9l3.9-2.7L587.2,54.3z M580.5,53.6l2,2.2l0.7-0.6l-1.3-1.4l2.9-2.6
			l-0.7-0.8L580.5,53.6z M581.1,50.3l-1.4-1.1l-0.5,0.7l0.6,0.5l-0.6,0.8c-0.1,0-0.3-0.1-0.5-0.3c-0.7-0.6-0.8-1.4-0.2-2.2
			c0.7-0.8,1.5-0.8,2.2-0.2c0.4,0.3,0.6,0.6,0.7,0.9l0.7-0.5c-0.1-0.2-0.4-0.6-0.9-1c-1.2-1-2.7-1-3.7,0.2c-0.4,0.5-0.7,1.2-0.6,1.8
			c0.1,0.6,0.4,1.2,1.1,1.7c0.5,0.4,1.1,0.7,1.4,0.8L581.1,50.3z M581,46.1c-0.3,0.4-0.3,0.9,0.2,1.3c0.5,0.4,1,0.3,1.3-0.1
			l-0.4-0.3c-0.1,0.1-0.3,0.2-0.6,0c-0.2-0.2-0.2-0.4-0.1-0.5L581,46.1z M574.5,47.4l-0.3,1.2l1,0.6l1-4.9l-1.2-0.7l-3.6,3.4l1,0.5
			l0.9-0.9L574.5,47.4z M573.9,46.1l0.7-0.7c0.2-0.2,0.4-0.5,0.6-0.7l0,0c-0.1,0.3-0.2,0.6-0.2,0.9l-0.2,1L573.9,46.1z M567.5,45.3
			c0.2,0.2,0.7,0.6,1.2,0.7c1.2,0.5,2,0,2.3-0.7c0.2-0.6,0-1.2-0.7-1.8c-0.5-0.4-0.7-0.6-0.6-0.9c0.1-0.2,0.4-0.4,0.8-0.2
			c0.4,0.2,0.7,0.4,0.9,0.6l0.5-0.7c-0.2-0.2-0.6-0.5-1.1-0.6c-1.1-0.4-1.9,0-2.2,0.7c-0.2,0.6,0.1,1.2,0.7,1.8
			c0.5,0.4,0.6,0.6,0.5,0.9c-0.1,0.3-0.4,0.4-0.9,0.2c-0.4-0.2-0.8-0.5-1-0.7L567.5,45.3z M563.6,39.8l-0.8,4.7l1.1,0.2l0.8-4.7
			L563.6,39.8z M563.8,39.1c0,0.3,0.1,0.5,0.4,0.6c0.3,0,0.5-0.1,0.5-0.4c0-0.3-0.1-0.5-0.4-0.6C564.1,38.6,563.8,38.8,563.8,39.1
			 M559.1,44.2l1.1,0.1l0.2-3.9l1.3,0.1l0-0.9l-3.7-0.2l0,0.9l1.3,0.1L559.1,44.2z M556.1,41.3l-1.7,0.2l-0.1-1l1.8-0.2l-0.1-0.9
			l-2.9,0.3l0.5,4.7l3-0.3l-0.1-0.9l-1.9,0.2l-0.1-1.1l1.7-0.2L556.1,41.3z M550.8,45l-0.5-1.9l0.8-3.1l-1.2,0.3l-0.2,1.2
			c0,0.4-0.1,0.7-0.1,1l0,0c-0.2-0.3-0.4-0.5-0.6-0.8l-0.8-1l-1.2,0.3l2.2,2.3l0.5,1.9L550.8,45z M544,41.5c0.1,0.2,0.4,0.4,0.6,0.3
			c0.2-0.1,0.4-0.4,0.3-0.6c-0.1-0.3-0.4-0.4-0.6-0.3C544.1,41,543.9,41.2,544,41.5 M544.3,42.2l1.8,4.4l1-0.4l-1.8-4.4L544.3,42.2z
			 M541.6,48.9l0.9-0.5l-0.9-1.6l0.3-0.2c0.4-0.2,0.6-0.2,1,0.3c0.4,0.4,0.7,0.7,0.8,0.8l1-0.5c-0.2-0.1-0.6-0.6-1-1
			c-0.3-0.3-0.6-0.5-1-0.5l0,0c0.3-0.3,0.5-0.9,0.2-1.4c-0.2-0.4-0.5-0.6-0.9-0.7c-0.4-0.1-0.9,0.1-1.5,0.4
			c-0.5,0.3-0.9,0.6-1.2,0.8L541.6,48.9z M540.6,45c0.1-0.1,0.2-0.1,0.4-0.3c0.4-0.2,0.8-0.2,1,0.2c0.2,0.4,0.1,0.8-0.4,1l-0.4,0.2
			L540.6,45z M534.1,48.6l1.7,2.1c1,1.2,1.9,1.2,2.9,0.5c1-0.8,1.1-1.8,0.2-2.9l-1.7-2.1l-0.8,0.7L538,49c0.5,0.7,0.5,1.2,0.1,1.5
			c-0.4,0.3-0.9,0.2-1.4-0.4L535,48L534.1,48.6z M529.7,53.4l3.6,3.1l0.7-0.8l-1.5-1.3l1.2-1.3l1.5,1.3l0.7-0.8l-3.6-3.1l-0.7,0.8
			l1.4,1.2l-1.2,1.3l-1.4-1.2L529.7,53.4z M531.9,58.7l0.5-0.9l-4.3-2.1l-0.7,1.2l1.1,1.2c0.4,0.4,0.9,0.8,1.3,1.2l0,0
			c-0.5-0.2-1.1-0.3-1.7-0.5l-1.6-0.4l-0.7,1.3l4,2.6l0.5-0.9l-1.5-1c-0.5-0.3-1.1-0.7-1.7-1l0,0c0.6,0.2,1.3,0.4,1.8,0.5l1.9,0.4
			l0.4-0.7l-1.3-1.4c-0.4-0.4-0.9-0.9-1.4-1.4l0,0c0.6,0.3,1.2,0.7,1.7,0.9L531.9,58.7z M523.6,66.1l2.5,0.8c1.4,0.5,2.3,0,2.7-1.2
			c0.4-1.2-0.1-2.1-1.5-2.5l-2.5-0.8l-0.3,1l2.6,0.8c0.8,0.3,1.1,0.7,0.9,1.2c-0.2,0.5-0.7,0.7-1.4,0.4l-2.6-0.8L523.6,66.1z
			 M526.8,68.9c0.1,0.2,0.1,0.6,0,0.9c-0.1,0.9-0.8,1.4-1.8,1.3c-1-0.2-1.5-0.9-1.3-1.7c0.1-0.4,0.2-0.7,0.3-0.9l-0.8-0.3
			c-0.1,0.2-0.3,0.6-0.4,1.1c-0.2,1.4,0.5,2.7,2.1,2.9c1.3,0.2,2.5-0.5,2.7-2.1c0.1-0.6,0-1,0-1.2L526.8,68.9z M524.3,76.4l0.1,1.7
			l-1,0.1l-0.1-1.8l-0.9,0.1l0.2,2.9l4.7-0.4l-0.2-3l-0.9,0.1l0.2,1.9l-1.1,0.1l-0.1-1.7L524.3,76.4z M527.9,81.8l-1.9,0.5l-3.1-0.9
			l0.3,1.2l1.2,0.2c0.4,0.1,0.7,0.1,1,0.1l0,0c-0.3,0.2-0.5,0.3-0.8,0.6l-1,0.7l0.3,1.2l2.4-2.1l1.9-0.5L527.9,81.8z M524.2,88.5
			c0.2-0.1,0.4-0.4,0.3-0.6c-0.1-0.3-0.4-0.4-0.6-0.3c-0.3,0.1-0.4,0.4-0.3,0.6C523.7,88.4,524,88.6,524.2,88.5 M525,88.3l4.5-1.7
			l-0.4-1l-4.5,1.7L525,88.3z M531.7,91.2l-0.5-0.9l-1.4,0.7l-0.6-0.1l1.3-2l-0.6-1.1l-1.6,2.8l-2.5-0.4l0.6,1.2l1.9,0.2
			c0.2,0,0.4,0,0.6,0l0,0l-1.9,1l0.5,0.9L531.7,91.2z M534.6,95.3l-0.7-0.8l-1.5,1.1l-0.2-0.3c-0.3-0.4-0.3-0.6,0.1-1.1
			c0.4-0.5,0.6-0.8,0.7-0.9l-0.7-0.9c-0.1,0.2-0.5,0.7-0.8,1.1c-0.3,0.4-0.4,0.7-0.3,1l0,0c-0.4-0.2-1-0.3-1.4,0
			c-0.3,0.3-0.5,0.6-0.5,1c0,0.4,0.2,0.9,0.6,1.5c0.3,0.5,0.7,0.8,1,1.1L534.6,95.3z M530.8,96.9c-0.1-0.1-0.2-0.2-0.3-0.4
			c-0.3-0.4-0.3-0.8,0-1c0.3-0.3,0.7-0.2,1.1,0.3l0.3,0.3L530.8,96.9z M533.2,101.7c0.2-0.2,0.2-0.5,0-0.7c-0.2-0.2-0.5-0.2-0.7,0
			c-0.2,0.2-0.2,0.5,0,0.7C532.7,102,533,101.9,533.2,101.7 M535.4,102.7l1.8-1.9c1-1.1,1-2.1,0.1-2.9c-0.9-0.8-1.9-0.8-2.9,0.2
			l-1.8,2l0.8,0.7l1.9-2c0.6-0.6,1.1-0.7,1.5-0.3c0.4,0.4,0.3,0.9-0.2,1.5l-1.9,2L535.4,102.7z M534.3,102.7c0.2-0.2,0.2-0.5,0-0.7
			c-0.2-0.2-0.5-0.2-0.7,0c-0.2,0.2-0.2,0.5,0,0.7C533.8,102.9,534.1,102.9,534.3,102.7 M541.6,101.3l-0.9-0.6l-2.1,3.2l-1.1-0.7
			L537,104l3.1,2l0.5-0.8l-1.1-0.7L541.6,101.3z M558.2,114.3c21.6,0,39.2-17.6,39.2-39.2c0-21.6-17.6-39.2-39.2-39.2
			c-21.6,0-39.2,17.6-39.2,39.2C519,96.8,536.6,114.3,558.2,114.3 M558.2,36.8c21.1,0,38.3,17.2,38.3,38.3s-17.2,38.3-38.3,38.3
			s-38.3-17.2-38.3-38.3S537.1,36.8,558.2,36.8 M558.2,104.3c16.1,0,29.1-13.1,29.1-29.1c0-16.1-13.1-29.1-29.1-29.1
			s-29.1,13.1-29.1,29.1C529.1,91.2,542.1,104.3,558.2,104.3 M558.2,46.9c15.6,0,28.3,12.7,28.3,28.3c0,15.6-12.7,28.3-28.3,28.3
			c-15.6,0-28.3-12.7-28.3-28.3C529.9,59.5,542.6,46.9,558.2,46.9 M574.4,33l-0.3,3.7l2.4-2.8l3.4,1.4l-1.9-3.2l2.4-2.8l-3.6,0.9
			l-1.9-3.1l-0.3,3.7l-3.6,0.8L574.4,33z M589.3,42.4l-1.7,3.3l3.3-1.7l2.6,2.6l-0.6-3.7l3.3-1.7l-3.7-0.6l-0.6-3.6l-1.7,3.3
			l-3.6-0.6L589.3,42.4z M599.4,56.8l-2.8,2.4l3.7-0.3l1.4,3.4l0.9-3.6l3.7-0.3l-3.2-1.9l0.9-3.6l-2.8,2.4l-3.1-1.9L599.4,56.8z
			 M603.3,74l-3.5,1.1l3.5,1.1l0,3.7l2.2-3l3.5,1.2l-2.2-3l2.2-3l-3.5,1.2l-2.2-3L603.3,74z M600.3,91.4l-3.7-0.3l2.8,2.4l-1.4,3.4
			l3.2-1.9l2.8,2.4l-0.9-3.6l3.1-1.9l-3.7-0.3l-0.8-3.6L600.3,91.4z M590.9,106.2l-3.3-1.7l1.7,3.3l-2.6,2.6l3.7-0.6l1.7,3.3
			l0.6-3.7l3.6-0.6l-3.3-1.7l0.6-3.6L590.9,106.2z M576.5,116.4l-2.4-2.8l0.3,3.7l-3.4,1.4l3.6,0.9l0.3,3.7l1.9-3.2l3.6,0.9
			l-2.4-2.8l1.9-3.1L576.5,116.4z M559.3,120.3l-1.1-3.5l-1.1,3.5l-3.7,0l3,2.2l-1.2,3.5l3-2.2l3,2.2l-1.2-3.5l3-2.2L559.3,120.3z
			 M542,117.2l0.3-3.7l-2.4,2.8l-3.4-1.4l1.9,3.2l-2.4,2.8l3.6-0.9l1.9,3.1l0.3-3.7l3.6-0.8L542,117.2z M527.1,107.8l1.7-3.3
			l-3.3,1.7l-2.6-2.6l0.6,3.7l-3.3,1.7l3.7,0.6l0.6,3.6l1.7-3.3l3.6,0.6L527.1,107.8z M516.9,93.4l2.8-2.4l-3.7,0.3l-1.4-3.4
			l-0.9,3.6l-3.7,0.3l3.2,1.9l-0.9,3.6l2.8-2.4l3.1,1.9L516.9,93.4z M513.1,76.2l3.5-1.1L513,74l0-3.7l-2.2,3l-3.5-1.2l2.2,3l-2.2,3
			l3.5-1.2l2.2,3L513.1,76.2z M516.1,58.9l3.7,0.3l-2.8-2.4l1.4-3.4l-3.2,1.9l-2.8-2.4l0.9,3.6l-3.2,1.9l3.7,0.3l0.8,3.6L516.1,58.9
			z M525.5,44l3.3,1.7l-1.7-3.3l2.6-2.6l-3.7,0.6l-1.7-3.3l-0.6,3.7l-3.6,0.6l3.3,1.7l-0.6,3.6L525.5,44z M539.9,33.9l2.4,2.8
			L542,33l3.4-1.4l-3.6-0.9l-0.3-3.7l-1.9,3.2l-3.6-0.9l2.4,2.8l-1.9,3.1L539.9,33.9z M557.1,30l1.1,3.5l1.1-3.5l3.7,0l-3-2.2
			l1.2-3.5l-3,2.2l-3-2.2l1.2,3.5l-3,2.2L557.1,30z M595.2,117.6c0.6,0,1.3-0.1,1.8-0.5l0.6-0.5c0.3-0.2,0.2-0.8-0.2-0.8l-2-0.1
			c-0.6,0-1.3,0.1-1.8,0.5l-0.6,0.5c-0.3,0.2-0.2,0.8,0.2,0.8L595.2,117.6z M592.1,120c0.6,0.1,1.3-0.1,1.8-0.4l0.7-0.4
			c0.3-0.2,0.2-0.8-0.1-0.8l-2-0.3c-0.6-0.1-1.3,0.1-1.8,0.4l-0.7,0.4c-0.3,0.2-0.2,0.8,0.1,0.8L592.1,120z M588.9,122.3
			c0.6,0.1,1.3,0,1.9-0.3l0.7-0.4c0.4-0.2,0.3-0.7-0.1-0.8l-2-0.4c-0.6-0.1-1.3,0-1.9,0.3l-0.7,0.4c-0.4,0.2-0.3,0.8,0.1,0.8
			L588.9,122.3z M585.5,124.3c0.6,0.2,1.3,0.1,1.9-0.2l0.7-0.3c0.4-0.2,0.3-0.7,0-0.8l-2-0.6c-0.6-0.2-1.3-0.1-1.9,0.2l-0.7,0.3
			c-0.4,0.2-0.3,0.7,0,0.8L585.5,124.3z M582,126.1c0.6,0.2,1.3,0.2,1.9,0l0.7-0.3c0.4-0.1,0.4-0.7,0-0.8l-1.9-0.7
			c-0.6-0.2-1.3-0.2-1.9,0l-0.7,0.3c-0.4,0.1-0.4,0.7,0,0.8L582,126.1z M578.4,127.6c0.6,0.3,1.3,0.3,1.9,0.1l0.7-0.2
			c0.4-0.1,0.4-0.7,0.1-0.8l-1.9-0.8c-0.6-0.3-1.3-0.3-1.9-0.1l-0.7,0.2c-0.4,0.1-0.4,0.7-0.1,0.8L578.4,127.6z M574.7,128.9
			c0.6,0.3,1.2,0.4,1.9,0.2l0.8-0.2c0.4-0.1,0.5-0.6,0.1-0.8l-1.8-1c-0.6-0.3-1.2-0.4-1.9-0.2l-0.8,0.2c-0.4,0.1-0.5,0.6-0.1,0.8
			L574.7,128.9z M570.9,130c0.5,0.3,1.2,0.5,1.9,0.4l0.8-0.1c0.4-0.1,0.5-0.6,0.2-0.8l-1.7-1.1c-0.5-0.3-1.2-0.5-1.9-0.4l-0.8,0.1
			c-0.4,0.1-0.5,0.6-0.2,0.8L570.9,130z M567.1,130.7c0.5,0.4,1.2,0.6,1.8,0.5l0.8-0.1c0.4,0,0.6-0.6,0.3-0.8l-1.7-1.2
			c-0.5-0.4-1.2-0.6-1.8-0.5l-0.8,0.1c-0.4,0-0.6,0.6-0.3,0.8L567.1,130.7z M563.2,131.2c0.5,0.4,1.1,0.6,1.8,0.6l0.8,0
			c0.4,0,0.6-0.5,0.3-0.8l-1.6-1.3c-0.5-0.4-1.1-0.6-1.8-0.6l-0.8,0c-0.4,0-0.6,0.5-0.3,0.8L563.2,131.2z M559.2,131.4
			c0.5,0.4,1.1,0.7,1.7,0.7l0.8,0c0.4,0,0.6-0.5,0.4-0.8l-1.5-1.4c-0.5-0.4-1.1-0.7-1.7-0.7l-0.8,0c-0.4,0-0.6,0.5-0.4,0.8
			L559.2,131.4z M555.3,131.3c0.4,0.5,1,0.8,1.7,0.9l0.8,0.1c0.4,0.1,0.7-0.4,0.4-0.7l-1.4-1.5c-0.4-0.5-1-0.8-1.7-0.9l-0.8-0.1
			c-0.4-0.1-0.7,0.4-0.4,0.7L555.3,131.3z M551.4,131c0.4,0.5,1,0.9,1.6,1l0.8,0.2c0.4,0.1,0.7-0.4,0.5-0.7l-1.3-1.6
			c-0.4-0.5-1-0.9-1.6-1l-0.8-0.2c-0.4-0.1-0.7,0.4-0.5,0.7L551.4,131z M547.5,130.4c0.4,0.5,0.9,0.9,1.5,1.1l0.8,0.2
			c0.4,0.1,0.7-0.3,0.5-0.7l-1.1-1.7c-0.4-0.5-0.9-0.9-1.5-1.1l-0.7-0.2c-0.4-0.1-0.7,0.3-0.5,0.7L547.5,130.4z M543.7,129.5
			c0.3,0.6,0.8,1,1.5,1.2l0.7,0.3c0.4,0.1,0.8-0.3,0.6-0.6l-1-1.8c-0.3-0.6-0.8-1-1.5-1.2l-0.7-0.3c-0.4-0.1-0.8,0.3-0.6,0.6
			L543.7,129.5z M539.9,128.4c0.3,0.6,0.8,1,1.4,1.3l0.7,0.3c0.4,0.2,0.8-0.2,0.6-0.6l-0.9-1.8c-0.3-0.6-0.8-1-1.4-1.3l-0.7-0.3
			c-0.4-0.2-0.8,0.2-0.6,0.6L539.9,128.4z M536.2,127c0.2,0.6,0.7,1.1,1.3,1.4l0.7,0.4c0.4,0.2,0.8-0.2,0.6-0.5l-0.8-1.9
			c-0.2-0.6-0.7-1.1-1.3-1.4l-0.7-0.4c-0.4-0.2-0.8,0.2-0.6,0.5L536.2,127z M532.7,125.3c0.2,0.6,0.6,1.1,1.2,1.5l0.7,0.4
			c0.3,0.2,0.8-0.1,0.7-0.5l-0.6-2c-0.2-0.6-0.6-1.1-1.2-1.5l-0.7-0.4c-0.3-0.2-0.8,0.1-0.7,0.5L532.7,125.3z M529.2,123.4
			c0.2,0.6,0.5,1.2,1.1,1.6l0.6,0.4c0.3,0.2,0.8-0.1,0.7-0.4l-0.5-2c-0.2-0.6-0.5-1.2-1.1-1.6l-0.6-0.4c-0.3-0.2-0.8,0.1-0.7,0.4
			L529.2,123.4z M525.9,121.3c0.1,0.6,0.5,1.2,1,1.6l0.6,0.5c0.3,0.3,0.8,0,0.7-0.4l-0.4-2c-0.1-0.6-0.4-1.2-1-1.6l-0.6-0.5
			c-0.3-0.3-0.8,0-0.7,0.4L525.9,121.3z M522.8,118.9c0.1,0.6,0.4,1.2,0.8,1.7l0.6,0.5c0.3,0.3,0.8,0,0.8-0.3l-0.2-2
			c-0.1-0.6-0.4-1.2-0.9-1.7l-0.6-0.5c-0.3-0.3-0.8,0-0.8,0.3L522.8,118.9z M519.8,116.3c0,0.6,0.3,1.3,0.7,1.7l0.5,0.6
			c0.3,0.3,0.8,0.1,0.8-0.3l-0.1-2c0-0.6-0.3-1.3-0.7-1.7l-0.5-0.6c-0.3-0.3-0.8-0.1-0.8,0.3L519.8,116.3z M517.1,113.6
			c0,0.6,0.2,1.3,0.6,1.8l0.5,0.6c0.3,0.3,0.8,0.2,0.8-0.2l0.1-2c0-0.6-0.2-1.3-0.6-1.8l-0.5-0.6c-0.3-0.3-0.8-0.2-0.8,0.2
			L517.1,113.6z M514.5,110.6c-0.1,0.6,0.1,1.3,0.5,1.8l0.4,0.6c0.2,0.3,0.8,0.2,0.8-0.2l0.2-2c0.1-0.6-0.1-1.3-0.5-1.8l-0.4-0.6
			c-0.2-0.3-0.8-0.2-0.8,0.2L514.5,110.6z M512.1,107.5c-0.1,0.6,0,1.3,0.4,1.9l0.4,0.7c0.2,0.3,0.8,0.3,0.8-0.1l0.4-2
			c0.1-0.6,0-1.3-0.4-1.9l-0.4-0.7c-0.2-0.3-0.8-0.3-0.8,0.1L512.1,107.5z M510,104.2c-0.2,0.6-0.1,1.3,0.2,1.9l0.4,0.7
			c0.2,0.4,0.7,0.3,0.8-0.1l0.5-2c0.2-0.6,0.1-1.3-0.2-1.9l-0.4-0.7c-0.2-0.4-0.7-0.3-0.8,0.1L510,104.2z M508.1,100.7
			c-0.2,0.6-0.2,1.3,0.1,1.9l0.3,0.7c0.2,0.4,0.7,0.4,0.8,0l0.6-1.9c0.2-0.6,0.2-1.3-0.1-1.9l-0.3-0.7c-0.2-0.4-0.7-0.4-0.8,0
			L508.1,100.7z M506.4,97.2c-0.2,0.6-0.3,1.3,0,1.9l0.3,0.7c0.1,0.4,0.7,0.4,0.8,0.1l0.8-1.9c0.2-0.6,0.3-1.3,0-1.9l-0.3-0.7
			c-0.1-0.4-0.7-0.4-0.8-0.1L506.4,97.2z M505,93.5c-0.3,0.6-0.3,1.2-0.2,1.9l0.2,0.8c0.1,0.4,0.7,0.5,0.8,0.1l0.9-1.8
			c0.3-0.6,0.3-1.2,0.2-1.9l-0.2-0.8c-0.1-0.4-0.7-0.5-0.8-0.1L505,93.5z M503.8,89.8c-0.3,0.6-0.4,1.2-0.3,1.9l0.1,0.8
			c0.1,0.4,0.6,0.5,0.8,0.2l1-1.8c0.3-0.6,0.4-1.2,0.3-1.9l-0.1-0.8c-0.1-0.4-0.6-0.5-0.8-0.2L503.8,89.8z M502.9,85.9
			c-0.4,0.5-0.5,1.2-0.4,1.8l0.1,0.8c0,0.4,0.6,0.6,0.8,0.2l1.1-1.7c0.4-0.5,0.5-1.2,0.4-1.8l-0.1-0.8c0-0.4-0.6-0.6-0.8-0.2
			L502.9,85.9z M502.3,82c-0.4,0.5-0.6,1.1-0.6,1.8l0,0.8c0,0.4,0.5,0.6,0.8,0.3l1.3-1.6c0.4-0.5,0.6-1.1,0.6-1.8l0-0.8
			c0-0.4-0.5-0.6-0.8-0.3L502.3,82z M502,78.1c-0.4,0.5-0.7,1.1-0.7,1.8l0,0.8c0,0.4,0.5,0.6,0.8,0.3l1.4-1.5
			c0.4-0.5,0.7-1.1,0.7-1.8l0-0.8c0-0.4-0.5-0.6-0.8-0.3L502,78.1z M501.9,74.2c-0.5,0.4-0.7,1.1-0.8,1.7l-0.1,0.8
			c0,0.4,0.5,0.7,0.7,0.4l1.5-1.4c0.5-0.4,0.7-1.1,0.8-1.7l0.1-0.8c0-0.4-0.5-0.7-0.7-0.4L501.9,74.2z M502.1,70.3
			c-0.5,0.4-0.8,1-0.9,1.7l-0.1,0.8c-0.1,0.4,0.4,0.7,0.7,0.4l1.6-1.3c0.5-0.4,0.8-1,0.9-1.7l0.1-0.8c0.1-0.4-0.4-0.7-0.7-0.4
			L502.1,70.3z M502.6,66.4c-0.5,0.4-0.9,0.9-1,1.6l-0.2,0.8c-0.1,0.4,0.4,0.7,0.7,0.5l1.7-1.2c0.5-0.4,0.9-0.9,1-1.6l0.2-0.8
			c0.1-0.4-0.4-0.7-0.7-0.5L502.6,66.4z M503.3,62.5c-0.5,0.3-1,0.9-1.1,1.5l-0.2,0.7c-0.1,0.4,0.3,0.7,0.6,0.5l1.7-1.1
			c0.5-0.3,0.9-0.9,1.1-1.5l0.2-0.7c0.1-0.4-0.3-0.7-0.6-0.5L503.3,62.5z M504.3,58.7c-0.6,0.3-1,0.8-1.2,1.4l-0.3,0.7
			c-0.1,0.4,0.3,0.8,0.6,0.6l1.8-1c0.6-0.3,1-0.8,1.2-1.4l0.3-0.7c0.1-0.4-0.3-0.8-0.6-0.6L504.3,58.7z M505.6,55
			c-0.6,0.3-1.1,0.7-1.3,1.3l-0.3,0.7c-0.2,0.4,0.2,0.8,0.6,0.6l1.9-0.8c0.6-0.3,1.1-0.7,1.3-1.3l0.3-0.7c0.2-0.4-0.2-0.8-0.6-0.6
			L505.6,55z M507.1,51.4c-0.6,0.2-1.1,0.7-1.4,1.2l-0.4,0.7c-0.2,0.4,0.2,0.8,0.5,0.7l1.9-0.7c0.6-0.2,1.1-0.7,1.4-1.2l0.4-0.7
			c0.2-0.4-0.1-0.8-0.5-0.7L507.1,51.4z M508.9,47.9c-0.6,0.2-1.2,0.6-1.5,1.1l-0.4,0.7c-0.2,0.3,0.1,0.8,0.5,0.7l2-0.6
			c0.6-0.2,1.2-0.6,1.5-1.1l0.4-0.7c0.2-0.3-0.1-0.8-0.5-0.7L508.9,47.9z M510.9,44.5c-0.6,0.1-1.2,0.5-1.6,1l-0.5,0.6
			c-0.2,0.3,0,0.8,0.4,0.7l2-0.4c0.6-0.1,1.2-0.5,1.6-1l0.5-0.6c0.2-0.3,0-0.8-0.4-0.7L510.9,44.5z M513.2,41.3
			c-0.6,0.1-1.2,0.4-1.7,0.9l-0.5,0.6c-0.3,0.3,0,0.8,0.4,0.8l2-0.3c0.6-0.1,1.2-0.4,1.7-0.9l0.5-0.6c0.3-0.3,0-0.8-0.4-0.8
			L513.2,41.3z M515.7,38.3c-0.6,0-1.2,0.3-1.7,0.8l-0.6,0.5c-0.3,0.3-0.1,0.8,0.3,0.8l2-0.1c0.6,0,1.2-0.3,1.7-0.8l0.6-0.5
			c0.3-0.3,0.1-0.8-0.3-0.8L515.7,38.3z M518.3,35.4c-0.6,0-1.3,0.2-1.8,0.7l-0.6,0.5c-0.3,0.3-0.1,0.8,0.3,0.8h2
			c0.6,0,1.3-0.2,1.8-0.7l0.6-0.5c0.3-0.3,0.1-0.8-0.3-0.8H518.3z M521.2,32.7c-0.6,0-1.3,0.1-1.8,0.5l-0.6,0.5
			c-0.3,0.2-0.2,0.8,0.2,0.8l2,0.1c0.6,0,1.3-0.1,1.8-0.5l0.6-0.5c0.3-0.2,0.2-0.8-0.2-0.8L521.2,32.7z M524.3,30.2
			c-0.6-0.1-1.3,0.1-1.8,0.4l-0.7,0.4c-0.3,0.2-0.2,0.8,0.1,0.8l2,0.3c0.6,0.1,1.3-0.1,1.8-0.4l0.7-0.4c0.3-0.2,0.2-0.8-0.1-0.8
			L524.3,30.2z M527.5,28c-0.6-0.1-1.3,0-1.9,0.3l-0.7,0.4c-0.4,0.2-0.3,0.8,0.1,0.8l2,0.4c0.6,0.1,1.3,0,1.9-0.3l0.7-0.4
			c0.4-0.2,0.3-0.7-0.1-0.8L527.5,28z M530.8,25.9c-0.6-0.2-1.3-0.1-1.9,0.2l-0.7,0.3c-0.4,0.2-0.3,0.7,0,0.8l2,0.6
			c0.6,0.2,1.3,0.1,1.9-0.2l0.7-0.3c0.4-0.2,0.3-0.7,0-0.8L530.8,25.9z M534.3,24.2c-0.6-0.2-1.3-0.2-1.9,0l-0.7,0.3
			c-0.4,0.1-0.4,0.7,0,0.8l1.9,0.7c0.6,0.2,1.3,0.2,1.9,0l0.7-0.3c0.4-0.1,0.4-0.7,0-0.8L534.3,24.2z M538,22.6
			c-0.6-0.3-1.3-0.3-1.9-0.1l-0.7,0.2c-0.4,0.1-0.4,0.7-0.1,0.8l1.9,0.8c0.6,0.3,1.3,0.3,1.9,0.1l0.7-0.2c0.4-0.1,0.4-0.7,0.1-0.8
			L538,22.6z M541.7,21.3c-0.6-0.3-1.2-0.4-1.9-0.2l-0.8,0.2c-0.4,0.1-0.5,0.6-0.1,0.8l1.8,1c0.6,0.3,1.2,0.4,1.9,0.2l0.8-0.2
			c0.4-0.1,0.5-0.6,0.1-0.8L541.7,21.3z M545.5,20.3c-0.5-0.3-1.2-0.5-1.9-0.4l-0.8,0.1c-0.4,0.1-0.5,0.6-0.2,0.8l1.7,1.1
			c0.5,0.3,1.2,0.5,1.9,0.4l0.8-0.1c0.4-0.1,0.5-0.6,0.2-0.8L545.5,20.3z M549.3,19.6c-0.5-0.4-1.2-0.6-1.8-0.5l-0.8,0.1
			c-0.4,0-0.6,0.6-0.3,0.8l1.7,1.2c0.5,0.4,1.2,0.6,1.8,0.5l0.8-0.1c0.4,0,0.6-0.6,0.3-0.8L549.3,19.6z M553.2,19.1
			c-0.5-0.4-1.1-0.6-1.8-0.6l-0.8,0c-0.4,0-0.6,0.5-0.3,0.8l1.6,1.3c0.5,0.4,1.1,0.6,1.8,0.6l0.8,0c0.4,0,0.6-0.5,0.3-0.8
			L553.2,19.1z M557.1,18.9c-0.5-0.4-1.1-0.7-1.7-0.7l-0.8,0c-0.4,0-0.6,0.5-0.4,0.8l1.5,1.4c0.5,0.4,1.1,0.7,1.7,0.7l0.8,0
			c0.4,0,0.6-0.5,0.4-0.8L557.1,18.9z M561.1,18.9c-0.4-0.5-1-0.8-1.7-0.9l-0.8-0.1c-0.4,0-0.7,0.4-0.4,0.7l1.4,1.5
			c0.4,0.5,1,0.8,1.7,0.9l0.8,0.1c0.4,0.1,0.7-0.4,0.4-0.7L561.1,18.9z M565,19.3c-0.4-0.5-1-0.9-1.6-1l-0.8-0.2
			c-0.4-0.1-0.7,0.4-0.5,0.7l1.3,1.6c0.4,0.5,1,0.9,1.6,1l0.8,0.1c0.4,0.1,0.7-0.4,0.5-0.7L565,19.3z M568.9,19.9
			c-0.4-0.5-0.9-0.9-1.5-1.1l-0.8-0.2c-0.4-0.1-0.7,0.3-0.5,0.7l1.1,1.7c0.4,0.5,0.9,0.9,1.5,1.1l0.7,0.2c0.4,0.1,0.7-0.3,0.5-0.7
			L568.9,19.9z M572.7,20.8c-0.3-0.6-0.8-1-1.5-1.2l-0.7-0.3c-0.4-0.1-0.8,0.3-0.6,0.6l1,1.8c0.3,0.6,0.8,1,1.5,1.2l0.7,0.3
			c0.4,0.1,0.8-0.3,0.6-0.6L572.7,20.8z M576.5,21.9c-0.3-0.6-0.8-1-1.4-1.3l-0.7-0.3c-0.4-0.2-0.8,0.2-0.6,0.6l0.9,1.8
			c0.3,0.6,0.8,1,1.4,1.3l0.7,0.3c0.4,0.2,0.8-0.2,0.6-0.6L576.5,21.9z M580.1,23.3c-0.2-0.6-0.7-1.1-1.3-1.4l-0.7-0.4
			c-0.4-0.2-0.8,0.2-0.6,0.5l0.8,1.9c0.2,0.6,0.7,1.1,1.3,1.4l0.7,0.4c0.4,0.2,0.8-0.2,0.6-0.5L580.1,23.3z M583.7,25
			c-0.2-0.6-0.6-1.1-1.2-1.5l-0.7-0.4c-0.3-0.2-0.8,0.1-0.7,0.5l0.6,1.9c0.2,0.6,0.6,1.1,1.2,1.5l0.7,0.4c0.3,0.2,0.8-0.1,0.7-0.5
			L583.7,25z M587.1,26.9c-0.2-0.6-0.5-1.2-1.1-1.6l-0.6-0.4c-0.3-0.2-0.8,0.1-0.7,0.4l0.5,2c0.2,0.6,0.5,1.2,1.1,1.6l0.6,0.4
			c0.3,0.2,0.8-0.1,0.7-0.4L587.1,26.9z M590.4,29c-0.1-0.6-0.5-1.2-1-1.6l-0.6-0.5c-0.3-0.3-0.8,0-0.7,0.4l0.4,2
			c0.1,0.6,0.5,1.2,1,1.6l0.6,0.5c0.3,0.3,0.8,0,0.7-0.4L590.4,29z M593.6,31.4c-0.1-0.6-0.4-1.2-0.9-1.7l-0.6-0.5
			c-0.3-0.3-0.8,0-0.8,0.3l0.2,2c0.1,0.6,0.4,1.2,0.9,1.7l0.6,0.5c0.3,0.3,0.8,0,0.8-0.3L593.6,31.4z M596.5,33.9
			c0-0.6-0.3-1.3-0.7-1.7l-0.5-0.6c-0.3-0.3-0.8-0.1-0.8,0.3l0.1,2c0,0.6,0.3,1.3,0.7,1.7l0.5,0.6c0.3,0.3,0.8,0.1,0.8-0.3
			L596.5,33.9z M599.3,36.7c0-0.6-0.2-1.3-0.6-1.8l-0.5-0.6c-0.3-0.3-0.8-0.2-0.8,0.2l-0.1,2c0,0.6,0.2,1.3,0.6,1.8l0.5,0.6
			c0.3,0.3,0.8,0.2,0.8-0.2L599.3,36.7z M601.9,39.7c0.1-0.6-0.1-1.3-0.5-1.8l-0.4-0.6c-0.2-0.3-0.8-0.2-0.8,0.2l-0.2,2
			c-0.1,0.6,0.1,1.3,0.5,1.8l0.4,0.6c0.2,0.3,0.8,0.2,0.8-0.2L601.9,39.7z M604.3,42.8c0.1-0.6,0-1.3-0.4-1.9l-0.4-0.7
			c-0.2-0.3-0.8-0.3-0.8,0.1l-0.4,2c-0.1,0.6,0,1.3,0.4,1.9l0.4,0.7c0.2,0.3,0.8,0.3,0.8-0.1L604.3,42.8z M606.4,46.1
			c0.2-0.6,0.1-1.3-0.2-1.9l-0.4-0.7c-0.2-0.4-0.7-0.3-0.8,0.1l-0.5,2c-0.2,0.6-0.1,1.3,0.2,1.9l0.4,0.7c0.2,0.4,0.7,0.3,0.8-0.1
			L606.4,46.1z M608.3,49.5c0.2-0.6,0.2-1.3-0.1-1.9l-0.3-0.7c-0.2-0.4-0.7-0.4-0.8,0l-0.6,1.9c-0.2,0.6-0.2,1.3,0.1,1.9l0.3,0.7
			c0.2,0.4,0.7,0.4,0.8,0L608.3,49.5z M610,53.1c0.2-0.6,0.3-1.3,0-1.9l-0.3-0.7c-0.1-0.4-0.7-0.4-0.8-0.1l-0.8,1.9
			c-0.2,0.6-0.3,1.3,0,1.9l0.3,0.7c0.1,0.4,0.7,0.4,0.8,0.1L610,53.1z M611.4,56.8c0.3-0.6,0.3-1.2,0.2-1.9l-0.2-0.8
			c-0.1-0.4-0.7-0.5-0.8-0.1l-0.9,1.8c-0.3,0.6-0.3,1.2-0.2,1.9l0.2,0.8c0.1,0.4,0.7,0.5,0.8,0.1L611.4,56.8z M612.5,60.5
			c0.3-0.6,0.4-1.2,0.3-1.9l-0.1-0.8c-0.1-0.4-0.6-0.5-0.8-0.2l-1,1.8c-0.3,0.6-0.4,1.2-0.3,1.9l0.1,0.8c0.1,0.4,0.6,0.5,0.8,0.2
			L612.5,60.5z M613.4,64.3c0.4-0.5,0.5-1.2,0.4-1.8l-0.1-0.8c0-0.4-0.6-0.6-0.8-0.2l-1.1,1.7c-0.4,0.5-0.5,1.2-0.4,1.8l0.1,0.8
			c0,0.4,0.6,0.6,0.8,0.2L613.4,64.3z M614.1,68.2c0.4-0.5,0.6-1.1,0.6-1.8l0-0.8c0-0.4-0.5-0.6-0.8-0.3l-1.3,1.6
			c-0.4,0.5-0.6,1.1-0.6,1.8l0,0.8c0,0.4,0.5,0.6,0.8,0.3L614.1,68.2z M614.4,72.1c0.4-0.5,0.7-1.1,0.7-1.8l0-0.8
			c0-0.4-0.5-0.6-0.8-0.3l-1.4,1.5c-0.4,0.5-0.7,1.1-0.7,1.8l0,0.8c0,0.4,0.5,0.6,0.8,0.3L614.4,72.1z M614.5,76.1
			c0.5-0.4,0.7-1.1,0.8-1.7l0.1-0.8c0-0.4-0.5-0.7-0.7-0.4l-1.5,1.4c-0.5,0.4-0.7,1.1-0.8,1.7l-0.1,0.8c0,0.4,0.5,0.7,0.7,0.4
			L614.5,76.1z M614.3,80c0.5-0.4,0.8-1,0.9-1.7l0.1-0.8c0.1-0.4-0.4-0.7-0.7-0.4l-1.6,1.3c-0.5,0.4-0.8,1-0.9,1.7l-0.1,0.8
			c-0.1,0.4,0.4,0.7,0.7,0.4L614.3,80z M613.8,83.9c0.5-0.4,0.9-0.9,1-1.6l0.2-0.8c0.1-0.4-0.4-0.7-0.7-0.5l-1.7,1.2
			c-0.5,0.4-0.9,0.9-1,1.6l-0.2,0.8c-0.1,0.4,0.4,0.7,0.7,0.5L613.8,83.9z M613.1,87.7c0.5-0.3,1-0.9,1.1-1.5l0.2-0.7
			c0.1-0.4-0.3-0.7-0.6-0.5l-1.7,1.1c-0.5,0.3-1,0.9-1.1,1.5l-0.2,0.7c-0.1,0.4,0.3,0.7,0.6,0.5L613.1,87.7z M612,91.5
			c0.6-0.3,1-0.8,1.2-1.4l0.3-0.7c0.1-0.4-0.3-0.8-0.6-0.6l-1.8,1c-0.6,0.3-1,0.8-1.2,1.4l-0.3,0.7c-0.1,0.4,0.3,0.8,0.6,0.6
			L612,91.5z M610.8,95.2c0.6-0.3,1.1-0.7,1.3-1.3l0.3-0.7c0.2-0.4-0.2-0.8-0.6-0.6l-1.9,0.8c-0.6,0.3-1.1,0.7-1.3,1.3l-0.3,0.7
			c-0.2,0.4,0.2,0.8,0.6,0.6L610.8,95.2z M609.2,98.9c0.6-0.2,1.1-0.7,1.4-1.2L611,97c0.2-0.4-0.1-0.8-0.5-0.7l-1.9,0.7
			c-0.6,0.2-1.1,0.7-1.4,1.2l-0.4,0.7c-0.2,0.4,0.1,0.8,0.5,0.7L609.2,98.9z M607.5,102.4c0.6-0.2,1.2-0.6,1.5-1.1l0.4-0.7
			c0.2-0.3-0.1-0.8-0.5-0.7l-2,0.6c-0.6,0.2-1.2,0.6-1.5,1.1l-0.4,0.6c-0.2,0.3,0.1,0.8,0.5,0.7L607.5,102.4z M605.4,105.7
			c0.6-0.1,1.2-0.5,1.6-1l0.5-0.6c0.2-0.3,0-0.8-0.4-0.7l-2,0.4c-0.6,0.1-1.2,0.5-1.6,1l-0.5,0.6c-0.2,0.3,0,0.8,0.4,0.7
			L605.4,105.7z M603.2,109c0.6-0.1,1.2-0.4,1.7-0.9l0.5-0.6c0.3-0.3,0-0.8-0.4-0.7l-2,0.3c-0.6,0.1-1.2,0.4-1.7,0.9l-0.5,0.6
			c-0.3,0.3,0,0.8,0.4,0.8L603.2,109z M600.7,112c0.6,0,1.2-0.3,1.7-0.8l0.6-0.5c0.3-0.3,0.1-0.8-0.3-0.8l-2,0.1
			c-0.6,0-1.2,0.3-1.7,0.8l-0.6,0.5c-0.3,0.3-0.1,0.8,0.3,0.8L600.7,112z M598,114.9h-2c-0.4,0-0.6-0.5-0.3-0.8l0.6-0.5
			c0.5-0.4,1.1-0.7,1.8-0.7h2c0.4,0,0.6,0.5,0.3,0.8l-0.6,0.5C599.3,114.6,598.7,114.9,598,114.9"/>
		<rect x="474.3" y="17.9" class="st0" width="1" height="114.5"/>
	</g>
</g>
</svg>
